%FSLAX33Y33*%
%MOMM*%
%SFA1.000B1.000*%

%MIA0B0*%
%IPPOS*%
%ADD10C,0.15200*%
%ADD11C,1.32100*%
%ADD15C,1.52400*%
%ADD24C,1.27000*%
%ADD25C,1.42200*%
%ADD29C,0.61000*%
%ADD30C,1.67600*%
%ADD31C,0.30500*%
%ADD32C,1.01600*%
%ADD34C,1.00600*%
%ADD35C,1.20600*%
%ADD36C,0.80600*%
%ADD37C,1.77800*%
%ADD38C,0.40600*%
%ADD39C,0.25400*%
%ADD40C,0.00000*%
%ADD47R,2.03200X0.66000*%
%ADD48R,2.20000X0.60000*%
%ADD49R,1.50000X2.00000*%
%ADD50R,1.60000X1.80300*%
%ADD51R,1.80300X1.60000*%
%ADD52R,1.50000X0.60000*%
%ADD53R,2.00000X1.50000*%
%ADD54R,2.40000X2.40000*%
%ADD55R,2.54000X5.08000*%
%ADD56R,1.90000X4.15000*%
%ADD57R,3.00000X1.40000*%
%ADD58R,1.00000X1.40000*%
%ADD59R,1.30000X1.30000*%
%ADD60R,1.30000X2.00000*%
%ADD61R,7.00000X7.00000*%
%ADD62R,6.45200X6.45200*%
%ADD901C,0.01000*%
%ADD903C,0.25000*%
%ADD910C,1.00000*%
%LNkleineplatinever11.top*%
%LPD*%
G54D47*
X36707Y23365D03*
Y22095D03*
Y20825D03*
Y19555D03*
Y18285D03*
Y17015D03*
Y15745D03*
Y14475D03*
X36407Y11535D03*
Y10265D03*
Y8995D03*
Y7725D03*
Y6455D03*
Y5185D03*
Y3915D03*
Y2645D03*
X42554D03*
Y3915D03*
Y5185D03*
Y6455D03*
Y7725D03*
Y8995D03*
Y10265D03*
Y11535D03*
X42854Y14475D03*
Y15745D03*
Y17015D03*
Y18285D03*
Y19555D03*
Y20825D03*
Y22095D03*
Y23365D03*
X22154Y39105D03*
Y40375D03*
Y41645D03*
Y42915D03*
Y44185D03*
Y45455D03*
Y46725D03*
Y47995D03*
X16007D03*
Y46725D03*
Y45455D03*
Y44185D03*
Y42915D03*
Y41645D03*
Y40375D03*
Y39105D03*
G54D48*
X49380Y38665D03*
Y39935D03*
Y37395D03*
Y36125D03*
Y34855D03*
Y33585D03*
Y32315D03*
Y31045D03*
Y28035D03*
Y26765D03*
Y25495D03*
Y24225D03*
Y22955D03*
Y21685D03*
Y20415D03*
Y19145D03*
X54580D03*
Y20415D03*
Y21685D03*
Y22955D03*
Y24225D03*
Y25495D03*
Y26765D03*
Y28035D03*
Y31045D03*
Y32315D03*
Y33585D03*
Y34855D03*
Y36125D03*
Y37395D03*
Y38665D03*
Y39935D03*
G54D49*
X59620Y38690D03*
X62620D03*
X62760Y27590D03*
X59760D03*
X47900Y12110D03*
X44900D03*
X45040Y1990D03*
X48040D03*
X16820Y8610D03*
X13820D03*
X13900Y12030D03*
X16900D03*
X16920Y15930D03*
X13920D03*
X13940Y19910D03*
X16940D03*
X16880Y23630D03*
X13880D03*
X4540D03*
X1540D03*
X1560Y26830D03*
X4560D03*
X4700Y15930D03*
X1700D03*
X1680Y12530D03*
X4680D03*
X4620Y9210D03*
X1620D03*
X21220Y36110D03*
X24220D03*
G54D50*
X70642Y13790D03*
X67798D03*
X67818Y16990D03*
X70662D03*
Y20610D03*
X67818D03*
X67778Y24010D03*
X70622D03*
X70642Y27590D03*
X67798D03*
X67818Y30990D03*
X70662D03*
X70682Y34390D03*
X67838D03*
X67858Y37790D03*
X70702D03*
X62652Y34890D03*
X59808D03*
X59878Y31110D03*
X62722D03*
X56442Y16210D03*
X53598D03*
X67818Y10260D03*
X70662D03*
X16682Y26860D03*
X13838D03*
X13978Y30940D03*
X16822D03*
X16962Y33940D03*
X14118D03*
X10982Y35240D03*
X8138D03*
X8158Y37940D03*
X11002D03*
X14198Y36940D03*
X17042D03*
X11022Y40540D03*
X8178D03*
X8158Y43010D03*
X8168Y45690D03*
X11012D03*
X11002Y43010D03*
X11032Y48390D03*
X8188D03*
X4622Y29960D03*
X1778D03*
G54D51*
X25090Y43778D03*
Y46622D03*
X49390Y46782D03*
Y43938D03*
X59360Y5562D03*
X63440Y5702D03*
Y2858D03*
X59360Y2718D03*
X33310Y3148D03*
Y5992D03*
X25360Y4842D03*
Y1998D03*
X9540D03*
Y4842D03*
G54D52*
X58700Y8365D03*
Y9635D03*
Y10905D03*
Y12175D03*
X64200D03*
Y10905D03*
Y9635D03*
Y8365D03*
G54D53*
X54990Y8800D03*
Y11800D03*
X32110Y11620D03*
X28810Y11640D03*
Y8640D03*
X32110Y8620D03*
X22390Y4940D03*
X18990Y4920D03*
X16190Y4900D03*
Y1900D03*
X18990Y1920D03*
X22390Y1940D03*
X12190Y1880D03*
Y4880D03*
X54390Y43600D03*
Y46600D03*
X68410Y45840D03*
X71590Y45880D03*
Y48880D03*
X68410Y48840D03*
G54D54*
X51170Y13180D03*
Y8780D03*
G54D55*
X50420Y4190D03*
X56420D03*
G54D56*
X61450Y16180D03*
Y23180D03*
G54D57*
X66410Y4510D03*
X71210D03*
G54D24*
X4020Y36930D03*
X2020Y38180D03*
X4020Y39430D03*
X2020Y40680D03*
X4020Y41930D03*
X2020Y43180D03*
X4020Y44430D03*
X2020Y45680D03*
X4020Y46930D03*
X2020Y35680D03*
G54D25*
X28700Y36340D03*
X31240D03*
Y33800D03*
X28700D03*
Y31260D03*
X31240D03*
Y28720D03*
X28700D03*
Y26180D03*
X31240D03*
Y23640D03*
X28700D03*
Y21100D03*
X31240D03*
Y18560D03*
X28700D03*
G54D58*
X28320Y5630D03*
X30220D03*
X29270Y3430D03*
G54D59*
X64200Y44260D03*
Y46560D03*
G54D60*
X59000Y45410D03*
G54D34*
X66600Y43700D03*
X61200Y42100D03*
X51600Y47300D03*
X47300Y48000D03*
X41700Y44600D03*
X39800Y45000D03*
X41600Y42000D03*
X34300Y40900D03*
X32400Y42200D03*
X30500Y39400D03*
X24300Y40800D03*
X24600Y42200D03*
X23900Y39100D03*
X19200Y42200D03*
X14100Y40000D03*
X7400Y33600D03*
X7100Y32100D03*
X5600Y32700D03*
X17000Y28900D03*
X15600Y25300D03*
X16000Y21800D03*
X10700Y18100D03*
X16900Y17600D03*
X25900Y15100D03*
X26100Y12200D03*
X28320Y7100D03*
X25300Y6600D03*
X21100Y6400D03*
X36400Y12800D03*
X38300Y9500D03*
X42800Y13400D03*
X44400Y10300D03*
Y7700D03*
X40600Y3915D03*
X38200Y2600D03*
X43600Y1100D03*
X52100Y3400D03*
X54200Y2800D03*
X72200Y1700D03*
X51900Y15800D03*
X45750Y17350D03*
X47400Y20400D03*
X44700Y22100D03*
X44400Y24600D03*
X41100Y29700D03*
X36400Y24900D03*
X24600Y33300D03*
X39900Y34800D03*
X49900Y41000D03*
X56400Y34900D03*
X57100Y30300D03*
X54600Y29700D03*
X64200Y27700D03*
X69200Y22300D03*
X59200Y17000D03*
X39800Y48600D03*
X32000Y48900D03*
X1500Y21700D03*
G54D35*
X36890Y34800D03*
Y37300D03*
G54D36*
X42400Y38900D03*
X46200Y38600D03*
X47400Y39900D03*
X51300Y34900D03*
X47500Y33500D03*
X46400Y32600D03*
X47400Y31800D03*
Y29000D03*
Y26800D03*
Y25500D03*
X52900Y24600D03*
Y27500D03*
X64700Y26200D03*
X64800Y29300D03*
X65300Y30400D03*
X66000Y31500D03*
X65300Y33500D03*
X65000Y36900D03*
X66300Y39900D03*
X63600Y41000D03*
X57800Y37300D03*
X54400Y42000D03*
X29200Y45300D03*
X26700Y43900D03*
X28400Y48000D03*
X18200Y46200D03*
X14300Y47200D03*
X13200Y47900D03*
X13400Y45900D03*
X13600Y44100D03*
X12600Y43000D03*
X14300Y42900D03*
X12700Y41600D03*
X12500Y38100D03*
X12600Y35900D03*
X11300Y32600D03*
X9500Y33000D03*
X18800Y33900D03*
X20100Y34100D03*
X21000Y33200D03*
X22400Y33300D03*
X26100Y29100D03*
X25700Y26700D03*
X44900Y14400D03*
X45500Y9000D03*
X44500Y5400D03*
X58100Y18600D03*
X20400Y7400D03*
X18100D03*
X12600Y6400D03*
X15700Y13600D03*
X6700Y41100D03*
G54D61*
X76700Y4300D03*
Y46300D03*
G54D62*
X4700Y4300D03*
G54D910*
X5000Y102700D03*
X156200D03*
X5000Y-1500D03*
G54D10*
X65177Y2403D02*
G01X66261D01*
X65719D02*
G01Y776D01*
X66814Y1047D02*
G01Y2132D01*
X67085Y2403*
X67627*
X67898Y2132*
Y1047*
X67627Y776*
X67085*
X66814Y1047*
X68451Y776D02*
G01Y2403D01*
X69264*
X69535Y2132*
Y1589*
X69264Y1318*
X68451*
G54D11*
X45171Y27170D02*
G01X43850D01*
Y29710D02*
G01X45171D01*
Y32250D02*
G01X43850D01*
Y34790D02*
G01X45171D01*
Y37330D02*
G01X43850D01*
Y39870D02*
G01X45171D01*
Y42410D02*
G01X43850D01*
Y44950D02*
G01X45171D01*
Y47490D02*
G01X43850D01*
X37551D02*
G01X36230D01*
Y44950D02*
G01X37551D01*
Y42410D02*
G01X36230D01*
Y39870D02*
G01X37551D01*
Y37330D02*
G01X36230D01*
Y34790D02*
G01X37551D01*
Y32250D02*
G01X36230D01*
Y29710D02*
G01X37551D01*
Y27170D02*
G01X36230D01*
G54D15*
X23032Y29260D02*
G01X21508D01*
Y26760D02*
G01X23032D01*
Y24260D02*
G01X21508D01*
Y21760D02*
G01X23032D01*
Y16160D02*
G01X21508D01*
Y13660D02*
G01X23032D01*
Y11160D02*
G01X21508D01*
Y8660D02*
G01X23032D01*
X10112Y8760D02*
G01X8588D01*
Y11260D02*
G01X10112D01*
Y13760D02*
G01X8588D01*
Y16260D02*
G01X10112D01*
Y21860D02*
G01X8588D01*
Y24360D02*
G01X10112D01*
Y26860D02*
G01X8588D01*
Y29360D02*
G01X10112D01*
X75238Y30334D02*
G01X76762D01*
Y32823D02*
G01X75238D01*
Y35312D02*
G01X76762D01*
Y37760D02*
G01X75238D01*
Y27819D02*
G01X76762D01*
Y25330D02*
G01X75238D01*
Y22790D02*
G01X76762D01*
Y20301D02*
G01X75238D01*
Y17786D02*
G01X76762D01*
Y15297D02*
G01X75238D01*
Y12807D02*
G01X76762D01*
G54D29*
X57700Y46700D02*
G01X54490D01*
X54390Y46600*
X53300*
X51400Y44500*
Y36100*
Y34900*
Y31045*
Y24225*
X49380*
X51400D02*
G01Y19145D01*
X49380*
X47900*
X45155*
X44700Y19600*
X42554*
X42854Y19555*
X47900Y19145D02*
G01Y12110D01*
Y10500*
X49620Y8780*
X51170*
X50690Y8800*
X49100*
X45040Y4240*
Y1990*
X45100Y2000D02*
G01X44200Y1100D01*
X43600*
X48040Y1990D02*
G01Y2700D01*
X48930*
X50420Y4190*
Y3400*
Y900*
X61482*
X63440Y2858*
X66410Y4510D02*
G01Y8000D01*
X69100*
X70200Y9100*
Y9798*
X70662Y10260*
X70802Y10400*
X73400*
X75808Y12807*
X76000*
X76008Y12800*
X77300*
X78300Y13800*
Y39000*
X76300Y41000*
X72200*
X69800Y43400*
X68410*
X66900*
X66600Y43700*
X64200Y44260D02*
G01Y42100D01*
X62620*
Y38690*
Y34900*
Y31100*
Y27730*
X62650Y27700*
X64200*
X63800Y26550D02*
G01X62760Y27590D01*
X62650Y27700*
X63800Y26550D02*
G01Y23200D01*
X63780Y23180*
X61450*
X58200Y23000D02*
G01X58155Y22955D01*
X54580*
X52900Y24600D02*
G01Y27500D01*
Y28035*
Y37400*
X54580*
Y37395*
X52900Y37400D02*
G01Y39935D01*
X54580*
X54390*
Y43600*
X57700Y46700D02*
G01Y38700D01*
X56500*
Y35000*
X56400Y34900*
X54625*
X54580Y34855*
X51400Y36100D02*
G01X49405D01*
X46800*
X45490Y34790*
X44510*
X39900Y34800D02*
G01X39800Y34400D01*
Y26600*
X40600Y25800*
Y23400*
X42600*
X42700Y23300*
X42854Y23365D02*
G01X42889Y23400D01*
X44400*
Y24600*
X40600Y23400D02*
G01Y15745D01*
X42854*
X40600D02*
G01Y11500D01*
X42519*
X42530Y11502*
X42540Y11507*
X42547Y11514*
X42552Y11524*
X42554Y11535*
X44325*
X44370Y11537*
X44415Y11542*
X44459Y11551*
X44503Y11563*
X44545Y11579*
X44586Y11598*
X44625Y11620*
X44663Y11645*
X44698Y11673*
X44732Y11703*
X44762Y11737*
X44790Y11772*
X44815Y11810*
X44837Y11849*
X44856Y11890*
X44872Y11932*
X44884Y11976*
X44893Y12020*
X44898Y12065*
X44900Y12110*
X40600Y11500D02*
G01Y3915D01*
X42554*
Y7725D02*
G01X44400D01*
Y7700*
X50420Y3400D02*
G01X52100D01*
X51170Y8780D02*
G01X54970D01*
X54978Y8782*
X54984Y8786*
X54988Y8792*
X54990Y8800*
X54992Y8760*
X54997Y8720*
X55007Y8681*
X55019Y8643*
X55036Y8606*
X55055Y8571*
X55078Y8538*
X55104Y8507*
X55132Y8479*
X55163Y8453*
X55196Y8430*
X55231Y8411*
X55268Y8394*
X55306Y8382*
X55345Y8372*
X55385Y8367*
X55425Y8365*
X58700*
X59360Y7705*
Y5562*
X64200Y9635D02*
G01X64235Y9600D01*
X65400*
X66410Y8590*
Y8000*
X53598Y16210D02*
G01X52900D01*
Y24600*
X54580Y26765D02*
G01X58935D01*
X58200Y26030*
Y23000*
Y20100*
X58150Y20050*
X59200Y19000*
Y17000*
X57245Y19145D02*
G01X58150Y20050D01*
X57245Y19145D02*
G01X54580D01*
X58935Y26765D02*
G01X59760Y27590D01*
X54580Y28035D02*
G01X52900D01*
X51400Y31045D02*
G01X49380D01*
X49405Y36100D02*
G01X49380Y36125D01*
X54580Y38665D02*
G01X54615Y38700D01*
X56500*
X57700D02*
G01X57710Y38690D01*
X59620*
X68410Y43400D02*
G01Y45840D01*
X66200Y47400D02*
G01X65360Y46560D01*
X64200*
X63660Y47100*
X57800*
X57700Y47000*
Y46700*
X51600Y47300D02*
G01X49390D01*
Y46782*
X47300Y48000D02*
G01X47000Y47700D01*
Y41800*
X45100Y39900*
X44540*
X44510Y39870*
X38800Y37300D02*
G01X36890D01*
Y37330*
X38800Y37300D02*
G01Y14475D01*
X36707*
X34965*
X32110Y11620*
X28830*
X28810Y11640*
Y18450*
X28700Y18560*
X24600Y19430D02*
G01X22270Y21760D01*
X22310Y21800*
X24600Y19430D02*
G01Y9400D01*
X23860Y8660*
X22270*
X23500Y7400D02*
G01X24100D01*
X25200Y8400*
X28170*
X28520Y8550*
X28810Y8640*
X28300Y8500D02*
G01Y7100D01*
X28320D02*
G01Y5630D01*
X36407Y2645D02*
G01X38155D01*
X38200Y2600*
X38300Y2700*
Y9500*
Y14475*
X36707*
X36407Y2645D02*
G01X36452Y2600D01*
X18200Y7500D02*
G01Y8700D01*
Y30700*
X17860Y30940*
X16822*
X17042Y31120*
Y33900*
X17002*
X16962Y33940*
X17042Y33900D02*
G01Y36940D01*
X17102Y37000*
X19000*
X19200Y36800*
Y42200*
Y45200*
X19900Y45900*
Y47700*
X20200Y48000*
X22149*
X22154Y47995*
Y46725D02*
G01Y45455D01*
X25127Y42915D02*
G01Y42727D01*
X24600Y42200*
X24300Y40800D02*
G01X24200D01*
X23800Y40400*
X22179*
X22154Y40375*
X19200Y36800D02*
G01X19890Y36110D01*
X21220*
X24220D02*
G01Y35680D01*
X24600Y35300*
Y33300*
X16007Y39105D02*
G01X14995D01*
X14100Y40000*
X11182Y40700D02*
G01X11159Y40698D01*
X11137Y40694*
X11116Y40686*
X11095Y40675*
X11077Y40661*
X11061Y40645*
X11047Y40627*
X11036Y40606*
X11028Y40585*
X11024Y40563*
X11022Y40540*
X11182Y40700*
X6000Y37515D02*
G01X4085Y39430D01*
X4020*
X6000Y37515D02*
G01Y33300D01*
X5600Y32900*
Y32700*
X32100Y41000D02*
G01X32400Y41300D01*
Y42200*
X32000Y48900D02*
G01X32800Y49700D01*
X66800*
X67660Y48840*
X68410*
X66200Y47400D02*
G01X71400D01*
X71600Y47200*
Y45890*
X71590Y45880*
X18200Y8700D02*
G01X17230Y8600D01*
X16820Y8610*
X18100Y7400D02*
G01X18200Y7500D01*
X9400Y8700D02*
G01Y4900D01*
X9540*
Y4842*
X9400Y8700D02*
G01X9340Y8760D01*
X9350D02*
G01X4720D01*
X4620Y9210*
G54D30*
X13880Y8650D02*
G01Y12000D01*
Y16100*
Y20000*
Y23630*
X59200Y17000D02*
G01X60630D01*
X60686Y16998*
X60742Y16992*
X60797Y16983*
X60851Y16970*
X60905Y16953*
X60957Y16932*
X61007Y16908*
X61056Y16881*
X61103Y16850*
X61147Y16816*
X61190Y16779*
X61229Y16740*
X61266Y16697*
X61300Y16653*
X61331Y16606*
X61358Y16557*
X61382Y16507*
X61403Y16455*
X61420Y16401*
X61433Y16347*
X61442Y16292*
X61448Y16236*
X61450Y16180*
G54D31*
X5480Y48390D02*
G01X4020Y46930D01*
X5480Y48390D02*
G01X8188D01*
X11032D02*
G01X11042Y48400D01*
X12700*
X13200Y47900*
X14300D02*
G01X14400Y48000D01*
X16002*
X16007Y47995*
X14300Y47900D02*
G01Y47200D01*
X13400Y45900D02*
G01X13010Y45690D01*
X11012*
X13585Y44185D02*
G01X16007D01*
X16062Y45400D02*
G01X17400D01*
X18200Y44600*
Y38500*
X18000Y38300*
X15900*
X15800Y38200*
Y32900*
X14178Y31278*
X13978Y30940*
X13838Y30700*
Y26860*
X12560*
X12500Y26800*
Y6500*
X12600Y6400*
X11700Y5370D02*
G01X12190Y4880D01*
X11700Y5370D02*
G01Y27400D01*
X12200Y27900*
Y28800*
X12190Y32012*
X14118Y33940*
Y34518*
X15300Y35700*
Y38300*
X14500*
X13000Y39800*
Y40600*
X12998Y40617*
X12994Y40634*
X12987Y40650*
X12977Y40664*
X12964Y40677*
X12950Y40687*
X12934Y40694*
X12917Y40698*
X12900Y40700*
X11182*
X12900D02*
G01X13500D01*
X14445Y41645*
X16007*
X15992Y42900D02*
G01X14300D01*
X13000Y41600*
X12700*
X12600Y43000D02*
G01X12590Y43010D01*
X11002*
X13600Y44100D02*
G01X13585Y44185D01*
X15992Y42900D02*
G01X16007Y42915D01*
X16062Y45400D02*
G01X16007Y45455D01*
Y46725D02*
G01X17675D01*
X18200Y46200*
X20500Y45000D02*
G01Y44100D01*
X22154*
Y44185*
Y45455D02*
G01X20955D01*
X20500Y45000*
Y44100D02*
G01Y41645D01*
X22154*
X22179Y40400D02*
G01X20500D01*
Y41645*
X22154Y42915D02*
G01X25127D01*
X25090Y43778*
X26700Y43900D02*
G01X26900Y44000D01*
Y46300*
X26578Y46622*
X25090*
X27900Y47500D02*
G01Y45700D01*
X28200Y45300*
Y44200*
X25600Y41600*
Y29900*
X25400Y29700*
Y27700*
X25600Y27500*
Y26700*
X25612Y26690*
X25627Y26683*
X25642Y26679*
X25658*
X25673Y26683*
X25688Y26690*
X25700Y26700*
X26100Y29100D02*
G01X26200Y29200D01*
Y41400*
X29200Y44400*
Y45300*
X31350Y44950D02*
G01X27300Y40900D01*
Y13700*
X26100Y12500*
Y12200*
X26940Y11640D02*
G01X23960Y8660D01*
X22270*
X23500Y7400D02*
G01X20400D01*
X21100Y6400D02*
G01Y6230D01*
X22390Y4940*
X19400Y5330D02*
G01Y32500D01*
X20100Y33200*
Y34100*
X21000Y33200D02*
G01Y32000D01*
X20400Y31400*
Y30900*
X19900Y30400*
Y13530*
X22270Y11160*
X26940Y11640D02*
G01X28810D01*
X32110Y8620D02*
G01X30220Y6730D01*
Y5630*
X30970*
X31000Y5600*
X31100*
X31500Y5200*
Y4000*
X31900Y3600*
X32858*
X33310Y3148*
Y5992D02*
G01Y6110D01*
X34100Y6900*
Y10265*
X36407*
Y11535D02*
G01Y12793D01*
X36400Y12800*
X36707Y15745D02*
G01X33155D01*
X32800Y16200*
Y19000*
X32500Y19300*
Y21800*
X31900Y22400*
X30540*
X28700Y23640*
X30400Y24900D02*
G01X29300Y26000D01*
X28700Y26180*
X30300Y27400D02*
G01X29000Y28700D01*
X28700Y28720*
X30000Y30000D02*
G01X28740Y31260D01*
X28700*
X30000Y30000D02*
G01X32100D01*
X32600Y29500*
Y29200*
X34700Y27300*
Y24500*
X35800Y23400*
X36672*
X36707Y23365*
X36702Y22100D02*
G01X35300D01*
Y23100*
X34100Y24300*
Y26900*
X33000Y28000*
X31960*
X31240Y28720*
X30300Y27400D02*
G01X32800D01*
X33600Y26600*
Y24100*
X34800Y22900*
Y20800*
X36382*
X36707Y20825*
Y19555D02*
G01X36362Y19600D01*
X34500*
Y20200*
X34300Y20400*
Y22700*
X33100Y23900*
Y25700*
X32620Y26180*
X31240*
X30400Y24900D02*
G01X32600D01*
Y23500*
X33700Y22400*
Y19900*
X34000Y19600*
Y18500*
X34100Y18300*
X36392*
X36707Y18285*
Y17015D02*
G01X36392Y17000D01*
X33500*
X33400Y17200*
Y19300*
X33100Y19600*
Y22200*
X31660Y23640*
X31240*
X35200Y26100D02*
G01X36400Y24900D01*
X35200Y26100D02*
G01Y28200D01*
X34400Y29000*
Y30200*
X32000Y32600*
X29900*
X28700Y33800*
X30000Y35000D02*
G01X31200Y33800D01*
X31240*
X30000Y35000D02*
G01Y38900D01*
X30500Y39400*
X26800Y41200D02*
G01Y16000D01*
X25900Y15100*
X22270Y16160D02*
G01X20400Y18030D01*
Y29900*
X22400Y31900*
Y33300*
X18800Y33900D02*
G01Y31300D01*
X18900Y31200*
Y6710*
X18300Y6210*
X18200Y6100*
X16200*
X16190Y4900*
X18990Y4920D02*
G01X19400Y5330D01*
X16900Y12030D02*
G01X16400Y12530D01*
Y13200*
X15700Y13600*
X16920Y15930D02*
G01X16900Y15950D01*
Y17600*
X16940Y19910D02*
G01X17240Y20260D01*
X16000Y21800*
X16880Y23630D02*
G01Y24020D01*
X15600Y25300*
X16682Y26860D02*
G01X17200Y27378D01*
Y28700*
X17000Y28900*
X11500Y29100D02*
G01Y32100D01*
X11300Y32300*
Y32600*
X10400Y33400D02*
G01X9500Y34300D01*
Y37900*
X9460Y37940*
X8158*
X4168Y41930*
X4020*
X4620Y43180D02*
G01X2020D01*
X4020Y44430D02*
G01X6170D01*
X7590Y43010*
X8158*
X7918Y41100D02*
G01X6700D01*
X4620Y43180*
X2030Y45690D02*
G01X8168D01*
X2030D02*
G01X2020Y45680D01*
X7918Y41100D02*
G01X8178Y40540D01*
X6800Y38400D02*
G01X6700D01*
X4400Y40700*
X2040*
X2020Y40680*
X4020Y36930D02*
G01X4200Y36750D01*
Y31800*
X4400Y31600*
X6400*
X6900Y32000*
X7100Y32100*
X7400Y33600D02*
G01X7700Y33900D01*
Y35000*
X7738Y35062*
X8138Y35240*
X7160*
X6800Y35600*
Y38400*
X11002Y37940D02*
G01X12340D01*
X12500Y38100*
X13140Y36940D02*
G01X14198D01*
X13140D02*
G01X12600Y36400D01*
Y35900*
X12100Y35400*
X11142*
X10982Y35240*
X10400Y33400D02*
G01Y30410D01*
X9350Y29360*
X11200Y28800D02*
G01X11500Y29100D01*
X11200Y28800D02*
G01Y20400D01*
X9300Y18500*
Y16310*
X9350Y16260*
X10600Y15000D02*
G01X11200Y15700D01*
Y17600*
X10700Y18100*
X10600Y15000D02*
G01X7500D01*
X6600Y15900*
Y16600*
X3100Y20100*
Y28600*
X4460Y29960*
X4622*
X6900Y30400D02*
G01Y28400D01*
X5330Y26830*
X4560*
X4590Y26860*
X9350*
Y24360D02*
G01X5960D01*
X5600Y24000*
X4910*
X4540Y23630*
X1560Y23600D02*
G01X1500Y23540D01*
Y21700*
X4700Y15930D02*
G01X5230Y15400D01*
X5700*
X7340Y13760*
X9350*
Y11260D02*
G01X5950D01*
X4680Y12530*
X1778Y29960D02*
G01Y35438D01*
X2020Y35680*
X6900Y30400D02*
G01X9500Y33000D01*
X22154Y39105D02*
G01X22159Y39100D01*
X23900*
X26800Y41200D02*
G01X33090Y47490D01*
X36890*
X38700Y46100D02*
G01X39800Y47200D01*
Y48600*
X38700Y46100D02*
G01Y43300D01*
X37800Y42400*
X36900*
X36890Y42410*
X37800Y39900D02*
G01X39800Y41900D01*
Y45000*
X41700Y44600D02*
G01Y44500D01*
X42600Y43600*
Y40400*
X41600Y39400*
Y38100*
X42100Y37600*
Y30700*
X43100Y29700*
X44500*
X44510Y29710*
X45500Y31000D02*
G01X46200Y30300D01*
Y21600*
X47400Y20400*
X49365*
X49380Y20415*
Y22955D02*
G01X47545D01*
X46700Y23800*
Y31400*
X46500Y31600*
Y32500*
X46400Y32600*
X45400Y33500D02*
G01X43100D01*
X42600Y33000*
Y31400*
X43000Y31000*
X45500*
X47400Y31800D02*
G01X47800Y32300D01*
X49380*
Y32315*
Y33585D02*
G01X47885D01*
X47500Y33500*
X46800Y34900D02*
G01X45400Y33500D01*
X46800Y34900D02*
G01X49335D01*
X49380Y34855*
X51300Y34900D02*
G01X51400D01*
X49315Y37330D02*
G01X47100D01*
Y38900*
X46600Y39400*
Y40248*
X49400Y43048*
Y43900*
X49390Y43938*
X49900Y41000D02*
G01X49380Y40480D01*
Y39935*
Y38665D02*
G01X48135D01*
X47400Y39400*
Y39900*
X46200Y38600D02*
G01X43100D01*
X42700Y38100*
Y38900*
X42400*
X42700Y38100D02*
G01Y33900D01*
X43100Y33500*
X41000Y34000D02*
G01X40600Y33600D01*
Y30200*
X41100Y29700*
X41600Y30500D02*
G01X42000Y30000D01*
Y26400*
X42800Y25600*
X45400*
Y20900*
X42929*
X42854Y20825*
Y22095D02*
G01X44695D01*
X44700Y22100*
X47400Y25500D02*
G01X49375D01*
X49380Y25495*
Y26765D02*
G01X47235D01*
X47400Y26800*
X48065Y28035D02*
G01X49380D01*
X48065D02*
G01X47400Y29000D01*
X41600Y30500D02*
G01Y37300D01*
X41000Y37900*
Y41400*
X41600Y42000*
X37800Y39900D02*
G01X36920D01*
X36890Y39870*
X35600Y38600D02*
G01X39200D01*
X41000Y36800*
Y34000*
X44510Y37330D02*
G01X47100D01*
X49315D02*
G01X49380Y37395D01*
X54580Y33585D02*
G01X58503D01*
X59808Y34890*
X57800Y36898*
Y37300*
X56400Y35300D02*
G01Y34900D01*
X57100Y32315D02*
G01X54580D01*
Y31045D02*
G01X54600Y31025D01*
Y29700*
X57100Y30300D02*
G01Y32315D01*
X59878Y31110D02*
G01X61200Y32432D01*
Y42100*
X63600Y41000D02*
G01Y40300D01*
X63900Y40000*
Y37500*
X64100Y37300*
Y35700*
X65300Y34500*
X67728*
X67838Y34390*
X65708Y33100D02*
G01X65300Y33500D01*
X65708Y33100D02*
G01X67818Y30990D01*
X66500Y31000D02*
G01X66000Y31500D01*
X66500Y31000D02*
G01Y27900D01*
X66810Y27590*
X67798*
X65400Y28700D02*
G01Y21700D01*
X66490Y20610*
X67818*
X69200Y22300D02*
G01Y13800D01*
X69190Y13790*
X67798*
X70642D02*
G01X70852Y14000D01*
X72300*
X73597Y15297*
X76000*
Y17786D02*
G01X72887D01*
X72300Y17200*
X70872*
X70662Y16990*
X67818D02*
G01X64700Y20108D01*
Y26200*
X66000Y24700D02*
G01Y29700D01*
X65300Y30400*
X64800Y29300D02*
G01X65400Y28700D01*
X62722Y31110D02*
G01X62712Y31100D01*
X62620*
X62652Y34890D02*
G01X62642Y34900D01*
X62620*
X65000Y36900D02*
G01Y37900D01*
X64500Y38400*
Y40400*
X65700Y41600*
Y44900*
X65200Y45400*
X59010*
X59000Y45410*
X54400Y43590D02*
G01Y42000D01*
Y43590D02*
G01X54390Y43600D01*
X66300Y39900D02*
G01X66900Y39300D01*
X67800*
Y37848*
X67858Y37790*
X70702D02*
G01X70792Y37700D01*
X72600*
X74988Y35312*
X76000*
X74377Y32823D02*
G01X72800Y34400D01*
X70692*
X70682Y34390*
X74377Y32823D02*
G01X76000D01*
Y30334D02*
G01X71319D01*
X70662Y30990*
X70872Y27819D02*
G01X70642Y27590D01*
X70872Y27819D02*
G01X76000D01*
Y25330D02*
G01X71942D01*
X70622Y24010*
X67778D02*
G01X67688Y24100D01*
X66600*
X66000Y24700*
X70662Y20610D02*
G01X70752Y20700D01*
X72100*
X74190Y22790*
X76000*
X64200Y12175D02*
G01X58700D01*
X57600Y10900D02*
G01X57000Y11500D01*
Y13000*
X56820Y13180*
X51170*
X54990Y11800D02*
G01X55200D01*
X57300Y9700*
X58635*
X58700Y9635*
X58695Y10900D02*
G01X57600D01*
X58695D02*
G01X58700Y10905D01*
X59700*
Y10900*
X61500Y9100*
Y4600*
X61090Y4190*
X56420*
X59360Y2718D02*
G01X59378Y2700D01*
X60700*
X63440Y5440*
Y5702*
Y5882*
X64200Y6642*
Y8365*
X67173Y10905D02*
G01X67221Y10903D01*
X67269Y10898*
X67317Y10889*
X67363Y10876*
X67409Y10860*
X67453Y10841*
X67496Y10819*
X67536Y10793*
X67575Y10764*
X67612Y10733*
X67646Y10699*
X67677Y10662*
X67706Y10623*
X67732Y10582*
X67754Y10540*
X67773Y10496*
X67789Y10450*
X67802Y10404*
X67811Y10356*
X67816Y10308*
X67818Y10260*
X67173Y10905D02*
G01X64200D01*
Y12175*
X57500Y17268D02*
G01Y18100D01*
X58000Y18600*
X58100*
X57500Y17268D02*
G01X56442Y16210D01*
X46400Y16700D02*
G01X45750Y17350D01*
X44815Y18285*
X42854*
Y17015D02*
G01X44285D01*
X44900Y16400*
Y14400*
X42854Y14475D02*
G01X42800Y14421D01*
Y13400*
X42554Y10265D02*
G01X44365D01*
X44400Y10300*
X45500Y9000D02*
G01X45495Y8995D01*
X42554*
X45100Y6500D02*
G01X46400Y7800D01*
Y16700*
X36707Y22095D02*
G01X36702Y22100D01*
X42599Y6500D02*
G01X42554Y6455D01*
X42599Y6500D02*
G01X45100D01*
X44500Y5400D02*
G01X44285Y5185D01*
X42554*
X35600Y38600D02*
G01X34800Y39400D01*
Y40400*
X34300Y40900*
X36890Y44950D02*
G01X31350D01*
X28400Y48000D02*
G01X27900Y47500D01*
G54D32*
X24220Y36110D02*
G01X24600Y35730D01*
Y33300*
Y30300*
X24500*
Y22800*
X22300Y21800*
G54D24*
X13880Y8650D02*
G01X13700Y8470D01*
X13800Y8500D02*
G01X14200Y8100D01*
Y1940*
X25360Y1998D02*
G01X27838D01*
X29270Y3430*
X25360Y4842D02*
G01X25300Y4902D01*
Y6600*
X1700Y15930D02*
G01X1540Y16090D01*
X28700Y36340D02*
G01Y40500D01*
X29100Y41000*
X32100*
X32400*
X33700Y39100*
Y35200*
X34110Y34790*
X36880*
X36890Y34800*
X51900Y16210D02*
G01Y15800D01*
Y16210D02*
G01X52900D01*
X54990Y8800D02*
G01Y8390D01*
X54200Y7200*
Y2800*
X71210Y2690D02*
G01Y4510D01*
Y2690D02*
G01X72200Y1700D01*
X79200Y4000D02*
G01Y6100D01*
X79600Y7800*
Y48840*
X76700*
X71100*
X68410*
G54D37*
X1560Y26830D02*
G01Y23600D01*
X1540Y23630D02*
G01Y16090D01*
X1560Y15900D02*
G01Y11300D01*
Y8000*
Y1940*
X4000*
X9200*
X12100*
X14200*
X16200*
X19000*
X22390*
G54D38*
X19000D02*
G01X18990D01*
Y1920*
X16200Y1940D02*
G01X16190D01*
Y1900*
X12190Y1940D02*
G01Y1880D01*
Y1940D02*
G01X12100D01*
X9540Y1998D02*
G01X9240Y1940D01*
X9200*
X1720Y8000D02*
G01X1560D01*
X1720D02*
G01X1620Y9210D01*
X1560Y11300D02*
G01X1680D01*
Y12530*
X1700Y15900D02*
G01X1560D01*
X1700D02*
G01Y15930D01*
X1560Y23600D02*
G01X1540D01*
Y23630*
G54D39*
X13880Y20000D02*
G01X14230Y19900D01*
X13940Y19910*
X13880Y16100D02*
G01X14180Y15970D01*
X13920Y15930*
X13900Y12030D02*
G01X14180Y12010D01*
X13880Y12000*
G54D40*
X13910Y8610D02*
G01X13820D01*
X13840*
X13700Y8470*
X13800Y8500D02*
G01X13910Y8610D01*
X4700Y4300D02*
G01X4000Y3900D01*
Y1940*
X71100Y48840D02*
G01Y48880D01*
X71590*
X76700Y48840D02*
G01Y46300D01*
Y4300D02*
G01X79200Y4000D01*
G54D901*
X161200Y106200D02*
G01X0D01*
Y-5000*
X161200*
Y106200*
G54D903*
G01X64531Y-7781D02*
Y-9750D01*
X65469Y-8437D02*
X64531Y-9375D01*
X64906Y-9000D02*
X65563Y-9750D01*
X66125Y-7781D02*
Y-9750D01*
X66781Y-9000D02*
X67906D01*
Y-8812D01*
X67813Y-8625D01*
X67719Y-8531D01*
X67531Y-8437D01*
X67250D01*
X67063Y-8531D01*
X66875Y-8719D01*
X66781Y-9000D01*
Y-9187D01*
X66875Y-9469D01*
X67063Y-9656D01*
X67250Y-9750D01*
X67531D01*
X67719Y-9656D01*
X67906Y-9469D01*
X68469Y-7781D02*
X68563Y-7875D01*
X68656Y-7781D01*
X68563Y-7687D01*
X68469Y-7781D01*
X68563Y-8437D02*
Y-9750D01*
X69313Y-8437D02*
Y-9750D01*
Y-8812D02*
X69594Y-8531D01*
X69781Y-8437D01*
X70063D01*
X70250Y-8531D01*
X70344Y-8812D01*
Y-9750D01*
X71000Y-9000D02*
X72125D01*
Y-8812D01*
X72031Y-8625D01*
X71938Y-8531D01*
X71750Y-8437D01*
X71469D01*
X71281Y-8531D01*
X71094Y-8719D01*
X71000Y-9000D01*
Y-9187D01*
X71094Y-9469D01*
X71281Y-9656D01*
X71469Y-9750D01*
X71750D01*
X71938Y-9656D01*
X72125Y-9469D01*
X72781Y-8437D02*
Y-10406D01*
Y-8719D02*
X72969Y-8531D01*
X73156Y-8437D01*
X73438D01*
X73625Y-8531D01*
X73813Y-8719D01*
X73906Y-9000D01*
Y-9187D01*
X73813Y-9469D01*
X73625Y-9656D01*
X73438Y-9750D01*
X73156D01*
X72969Y-9656D01*
X72781Y-9469D01*
X74563Y-7781D02*
Y-9750D01*
X76344Y-8437D02*
Y-9750D01*
Y-8719D02*
X76156Y-8531D01*
X75969Y-8437D01*
X75688D01*
X75500Y-8531D01*
X75313Y-8719D01*
X75219Y-9000D01*
Y-9187D01*
X75313Y-9469D01*
X75500Y-9656D01*
X75688Y-9750D01*
X75969D01*
X76156Y-9656D01*
X76344Y-9469D01*
X77188Y-7781D02*
Y-9375D01*
X77281Y-9656D01*
X77469Y-9750D01*
X77656D01*
X76906Y-8437D02*
X77563D01*
X78125Y-7781D02*
X78219Y-7875D01*
X78313Y-7781D01*
X78219Y-7687D01*
X78125Y-7781D01*
X78219Y-8437D02*
Y-9750D01*
X78969Y-8437D02*
Y-9750D01*
Y-8812D02*
X79250Y-8531D01*
X79438Y-8437D01*
X79719D01*
X79906Y-8531D01*
X80000Y-8812D01*
Y-9750D01*
X80656Y-9000D02*
X81781D01*
Y-8812D01*
X81688Y-8625D01*
X81594Y-8531D01*
X81406Y-8437D01*
X81125D01*
X80938Y-8531D01*
X80750Y-8719D01*
X80656Y-9000D01*
Y-9187D01*
X80750Y-9469D01*
X80938Y-9656D01*
X81125Y-9750D01*
X81406D01*
X81594Y-9656D01*
X81781Y-9469D01*
X82250Y-8437D02*
X82813Y-9750D01*
X83375Y-8437D02*
X82813Y-9750D01*
X83844Y-9000D02*
X84969D01*
Y-8812D01*
X84875Y-8625D01*
X84781Y-8531D01*
X84594Y-8437D01*
X84313D01*
X84125Y-8531D01*
X83938Y-8719D01*
X83844Y-9000D01*
Y-9187D01*
X83938Y-9469D01*
X84125Y-9656D01*
X84313Y-9750D01*
X84594D01*
X84781Y-9656D01*
X84969Y-9469D01*
X85625Y-8437D02*
Y-9750D01*
Y-9000D02*
X85719Y-8719D01*
X85906Y-8531D01*
X86094Y-8437D01*
X86375D01*
X87031Y-8156D02*
X87219Y-8062D01*
X87500Y-7781D01*
Y-9750D01*
X88906Y-8156D02*
X89094Y-8062D01*
X89375Y-7781D01*
Y-9750D01*
X90688Y-9562D02*
X90594Y-9656D01*
X90688Y-9750D01*
X90781Y-9656D01*
X90688Y-9562D01*
X91625Y-7781D02*
Y-9375D01*
X91719Y-9656D01*
X91906Y-9750D01*
X92094D01*
X91344Y-8437D02*
X92000D01*
X93031D02*
X92844Y-8531D01*
X92656Y-8719D01*
X92563Y-9000D01*
Y-9187D01*
X92656Y-9469D01*
X92844Y-9656D01*
X93031Y-9750D01*
X93313D01*
X93500Y-9656D01*
X93688Y-9469D01*
X93781Y-9187D01*
Y-9000D01*
X93688Y-8719D01*
X93500Y-8531D01*
X93313Y-8437D01*
X93031D01*
X94438D02*
Y-10406D01*
Y-8719D02*
X94625Y-8531D01*
X94813Y-8437D01*
X95094D01*
X95281Y-8531D01*
X95469Y-8719D01*
X95563Y-9000D01*
Y-9187D01*
X95469Y-9469D01*
X95281Y-9656D01*
X95094Y-9750D01*
X94813D01*
X94625Y-9656D01*
X94438Y-9469D01*
M02*
