M48
;FILE_FORMAT=3:3
METRIC,000.000
T01C0.4
T02C0.6
T03C0.8
T04C0.8
T05C0.9
T06C1.
T07C3.8
DETECT,ON
ATC,ON
%
T01
X013200Y047900
X014300Y047200
X013400Y045900
X013600Y044100
X012600Y043000
X014300Y042900
X012700Y041600
X012500Y038100
X012600Y035900
X011300Y032600
X009500Y033000
X018800Y033900
X020100Y034100
X021000Y033200
X022400Y033300
X026100Y029100
X025700Y026700
X042400Y038900
X046200Y038600
X047400Y039900
X051300Y034900
X047500Y033500
X046400Y032600
X047400Y031800
X047400Y029000
X047400Y026800
X047400Y025500
X052900Y024600
X052900Y027500
X064700Y026200
X064800Y029300
X065300Y030400
X066000Y031500
X065300Y033500
X065000Y036900
X066300Y039900
X063600Y041000
X057800Y037300
X054400Y042000
X029200Y045300
X026700Y043900
X028400Y048000
X018200Y046200
X006700Y041100
X044900Y014400
X045500Y009000
X044500Y005400
X058100Y018600
X020400Y007400
X018100Y007400
X012600Y006400
X015700Y013600
T02
X004020Y046930
X002020Y045680
X004020Y044430
X002020Y043180
X004020Y041930
X002020Y040680
X004020Y039430
X002020Y038180
X004020Y036930
X002020Y035680
X005600Y032700
X007100Y032100
X007400Y033600
X014100Y040000
X019200Y042200
X024300Y040800
X024600Y042200
X023900Y039100
X030500Y039400
X032400Y042200
X034300Y040900
X039800Y045000
X041700Y044600
X041600Y042000
X049900Y041000
X051600Y047300
X047300Y048000
X039800Y048600
X032000Y048900
X039900Y034800
X041100Y029700
X036400Y024900
X044400Y024600
X044700Y022100
X047400Y020400
X045750Y017350
X042800Y013400
X044400Y010300
X044400Y007700
X040600Y003915
X038200Y002600
X043600Y001100
X052100Y003400
X054200Y002800
X038300Y009500
X036400Y012800
X028320Y007100
X025300Y006600
X021100Y006400
X026100Y012200
X025900Y015100
X016900Y017600
X016000Y021800
X015600Y025300
X017000Y028900
X024600Y033300
X010700Y018100
X001500Y021700
X051900Y015800
X059200Y017000
X069200Y022300
X064200Y027700
X057100Y030300
X054600Y029700
X056400Y034900
X061200Y042100
X066600Y043700
X072200Y001700
T03
X036890Y034800
X036890Y037300
T04
X036890Y037330
X036890Y034790
X036890Y032250
X036890Y029710
X036890Y027170
X044510Y027170
X044510Y029710
X044510Y032250
X044510Y034790
X044510Y037330
X044510Y039870
X044510Y042410
X044510Y044950
X044510Y047490
X036890Y047490
X036890Y044950
X036890Y042410
X036890Y039870
T05
X031240Y036340
X028700Y036340
X028700Y033800
X031240Y033800
X031240Y031260
X028700Y031260
X028700Y028720
X031240Y028720
X031240Y026180
X028700Y026180
X028700Y023640
X031240Y023640
X031240Y021100
X028700Y021100
X028700Y018560
X031240Y018560
T06
X022270Y016160
X022270Y013660
X022270Y011160
X022270Y008660
X009350Y008760
X009350Y011260
X009350Y013760
X009350Y016260
X009350Y021860
X009350Y024360
X009350Y026860
X009350Y029360
X022270Y029260
X022270Y026760
X022270Y024260
X022270Y021760
X076000Y022790
X076000Y025330
X076000Y027819
X076000Y030334
X076000Y032823
X076000Y035312
X076000Y037760
X076000Y020301
X076000Y017786
X076000Y015297
X076000Y012807
T07
X076700Y004300
X076700Y046300
X004700Y004300
M30
