%FSLAX33Y33*%
%MOMM*%
%SFA1.000B1.000*%

%MIA0B0*%
%IPPOS*%
%ADD11C,1.32100*%
%ADD15C,1.52400*%
%ADD24C,1.27000*%
%ADD25C,1.42200*%
%ADD34C,1.00600*%
%ADD35C,1.20600*%
%ADD36C,0.80600*%
%ADD47R,2.03200X0.66000*%
%ADD48R,2.20000X0.60000*%
%ADD49R,1.50000X2.00000*%
%ADD50R,1.60000X1.80300*%
%ADD51R,1.80300X1.60000*%
%ADD52R,1.50000X0.60000*%
%ADD53R,2.00000X1.50000*%
%ADD54R,2.40000X2.40000*%
%ADD55R,2.54000X5.08000*%
%ADD56R,1.90000X4.15000*%
%ADD57R,3.00000X1.40000*%
%ADD58R,1.00000X1.40000*%
%ADD59R,1.30000X1.30000*%
%ADD60R,1.30000X2.00000*%
%ADD61R,7.00000X7.00000*%
%ADD62R,6.45200X6.45200*%
%ADD901C,0.01000*%
%ADD903C,0.25000*%
%ADD920C,2.00000*%
%LNkleineplatinever11.smt*%
%LPD*%
G54D47*
X22154Y47995D03*
Y46725D03*
Y45455D03*
Y44185D03*
Y42915D03*
Y41645D03*
Y40375D03*
Y39105D03*
X16007D03*
Y40375D03*
Y41645D03*
Y42915D03*
Y44185D03*
Y45455D03*
Y46725D03*
Y47995D03*
X36707Y23365D03*
Y22095D03*
Y20825D03*
Y19555D03*
Y18285D03*
Y17015D03*
Y15745D03*
Y14475D03*
X36407Y11535D03*
Y10265D03*
Y8995D03*
Y7725D03*
Y6455D03*
Y5185D03*
Y3915D03*
Y2645D03*
X42554D03*
Y3915D03*
Y5185D03*
Y6455D03*
Y7725D03*
Y8995D03*
Y10265D03*
Y11535D03*
X42854Y14475D03*
Y15745D03*
Y17015D03*
Y18285D03*
Y19555D03*
Y20825D03*
Y22095D03*
Y23365D03*
G54D48*
X49380Y22955D03*
Y24225D03*
Y25495D03*
Y26765D03*
Y28035D03*
Y31045D03*
Y32315D03*
Y33585D03*
Y34855D03*
Y36125D03*
Y37395D03*
Y38665D03*
Y39935D03*
X54580D03*
Y38665D03*
Y37395D03*
Y36125D03*
Y34855D03*
Y33585D03*
Y32315D03*
Y31045D03*
Y28035D03*
Y26765D03*
Y25495D03*
Y24225D03*
Y22955D03*
Y21685D03*
Y20415D03*
Y19145D03*
X49380D03*
Y20415D03*
Y21685D03*
G54D49*
X59760Y27590D03*
X62760D03*
X62620Y38690D03*
X59620D03*
X24220Y36110D03*
X21220D03*
X4560Y26830D03*
X1560D03*
X1540Y23630D03*
X4540D03*
X13880D03*
X16880D03*
X16940Y19910D03*
X13940D03*
X13920Y15930D03*
X16920D03*
X16900Y12030D03*
X13900D03*
X13820Y8610D03*
X16820D03*
X4620Y9210D03*
X1620D03*
X1680Y12530D03*
X4680D03*
X4700Y15930D03*
X1700D03*
X44900Y12110D03*
X47900D03*
X48040Y1990D03*
X45040D03*
G54D50*
X70702Y37790D03*
X67858D03*
X67838Y34390D03*
X70682D03*
X70662Y30990D03*
X67818D03*
X67798Y27590D03*
X70642D03*
X70622Y24010D03*
X67778D03*
X67818Y20610D03*
X70662D03*
Y16990D03*
X67818D03*
X67798Y13790D03*
X70642D03*
X70662Y10260D03*
X67818D03*
X56442Y16210D03*
X53598D03*
X59878Y31110D03*
X62722D03*
X62652Y34890D03*
X59808D03*
X17042Y36940D03*
X14198D03*
X11002Y37940D03*
X8158D03*
X8178Y40540D03*
X11022D03*
X11002Y43010D03*
X11012Y45690D03*
X8168D03*
X8158Y43010D03*
X8188Y48390D03*
X11032D03*
X10982Y35240D03*
X14118Y33940D03*
X16962D03*
X16822Y30940D03*
X13978D03*
X8138Y35240D03*
X4622Y29960D03*
X1778D03*
X13838Y26860D03*
X16682D03*
G54D51*
X25090Y43778D03*
Y46622D03*
X49390Y46782D03*
Y43938D03*
X59360Y5562D03*
X63440Y5702D03*
Y2858D03*
X59360Y2718D03*
X33310Y3148D03*
Y5992D03*
X25360Y4842D03*
Y1998D03*
X9540D03*
Y4842D03*
G54D52*
X58700Y8365D03*
Y9635D03*
Y10905D03*
Y12175D03*
X64200D03*
Y10905D03*
Y9635D03*
Y8365D03*
G54D53*
X54990Y8800D03*
Y11800D03*
X32110Y11620D03*
X28810Y11640D03*
Y8640D03*
X32110Y8620D03*
X22390Y4940D03*
X18990Y4920D03*
X16190Y4900D03*
Y1900D03*
X18990Y1920D03*
X22390Y1940D03*
X12190Y1880D03*
Y4880D03*
X54390Y43600D03*
Y46600D03*
X68410Y45840D03*
X71590Y45880D03*
Y48880D03*
X68410Y48840D03*
G54D54*
X51170Y13180D03*
Y8780D03*
G54D55*
X50420Y4190D03*
X56420D03*
G54D56*
X61450Y16180D03*
Y23180D03*
G54D57*
X66410Y4510D03*
X71210D03*
G54D24*
X4020Y46930D03*
X2020Y45680D03*
X4020Y44430D03*
X2020Y43180D03*
X4020Y41930D03*
X2020Y40680D03*
X4020Y39430D03*
X2020Y38180D03*
X4020Y36930D03*
X2020Y35680D03*
G54D25*
X28700Y36340D03*
X31240D03*
Y33800D03*
X28700D03*
Y31260D03*
X31240D03*
Y28720D03*
X28700D03*
Y26180D03*
X31240D03*
Y23640D03*
X28700D03*
Y21100D03*
X31240D03*
Y18560D03*
X28700D03*
G54D58*
X28320Y5630D03*
X30220D03*
X29270Y3430D03*
G54D59*
X64200Y44260D03*
Y46560D03*
G54D60*
X59000Y45410D03*
G54D34*
X61200Y42100D03*
X66600Y43700D03*
X56400Y34900D03*
X57100Y30300D03*
X54600Y29700D03*
X64200Y27700D03*
X69200Y22300D03*
X59200Y17000D03*
X51900Y15800D03*
X45750Y17350D03*
X47400Y20400D03*
X44700Y22100D03*
X44400Y24600D03*
X41100Y29700D03*
X36400Y24900D03*
X24600Y33300D03*
X17000Y28900D03*
X15600Y25300D03*
X16000Y21800D03*
X10700Y18100D03*
X16900Y17600D03*
X25900Y15100D03*
X26100Y12200D03*
X28320Y7100D03*
X25300Y6600D03*
X21100Y6400D03*
X36400Y12800D03*
X38300Y9500D03*
X42800Y13400D03*
X44400Y10300D03*
Y7700D03*
X40600Y3915D03*
X38200Y2600D03*
X43600Y1100D03*
X52100Y3400D03*
X54200Y2800D03*
X72200Y1700D03*
X39900Y34800D03*
X34300Y40900D03*
X32400Y42200D03*
X30500Y39400D03*
X24300Y40800D03*
X24600Y42200D03*
X23900Y39100D03*
X19200Y42200D03*
X14100Y40000D03*
X7400Y33600D03*
X7100Y32100D03*
X5600Y32700D03*
X1500Y21700D03*
X39800Y45000D03*
X41700Y44600D03*
X41600Y42000D03*
X49900Y41000D03*
X51600Y47300D03*
X47300Y48000D03*
X39800Y48600D03*
X32000Y48900D03*
G54D35*
X36890Y37300D03*
Y34800D03*
G54D36*
X42400Y38900D03*
X46200Y38600D03*
X47400Y39900D03*
X51300Y34900D03*
X47500Y33500D03*
X46400Y32600D03*
X47400Y31800D03*
Y29000D03*
Y26800D03*
Y25500D03*
X52900Y24600D03*
Y27500D03*
X64700Y26200D03*
X64800Y29300D03*
X65300Y30400D03*
X66000Y31500D03*
X65300Y33500D03*
X65000Y36900D03*
X66300Y39900D03*
X63600Y41000D03*
X57800Y37300D03*
X54400Y42000D03*
X29200Y45300D03*
X26700Y43900D03*
X28400Y48000D03*
X18200Y46200D03*
X14300Y47200D03*
X13200Y47900D03*
X13400Y45900D03*
X13600Y44100D03*
X12600Y43000D03*
X14300Y42900D03*
X12700Y41600D03*
X12500Y38100D03*
X12600Y35900D03*
X11300Y32600D03*
X9500Y33000D03*
X18800Y33900D03*
X20100Y34100D03*
X21000Y33200D03*
X22400Y33300D03*
X26100Y29100D03*
X25700Y26700D03*
X44900Y14400D03*
X45500Y9000D03*
X44500Y5400D03*
X58100Y18600D03*
X20400Y7400D03*
X18100D03*
X12600Y6400D03*
X15700Y13600D03*
X6700Y41100D03*
G54D61*
X76700Y46300D03*
Y4300D03*
G54D62*
X4700D03*
G54D920*
X5000Y102700D03*
X156200D03*
X5000Y-1500D03*
G54D11*
X36230Y47490D02*
G01X37551D01*
Y44950D02*
G01X36230D01*
Y42410D02*
G01X37551D01*
Y39870D02*
G01X36230D01*
Y37330D02*
G01X37551D01*
Y34790D02*
G01X36230D01*
Y32250D02*
G01X37551D01*
Y29710D02*
G01X36230D01*
Y27170D02*
G01X37551D01*
X43850D02*
G01X45171D01*
Y29710D02*
G01X43850D01*
Y32250D02*
G01X45171D01*
Y34790D02*
G01X43850D01*
Y37330D02*
G01X45171D01*
Y39870D02*
G01X43850D01*
Y42410D02*
G01X45171D01*
Y44950D02*
G01X43850D01*
Y47490D02*
G01X45171D01*
G54D15*
X23032Y8660D02*
G01X21508D01*
Y11160D02*
G01X23032D01*
Y13660D02*
G01X21508D01*
Y16160D02*
G01X23032D01*
Y21760D02*
G01X21508D01*
Y24260D02*
G01X23032D01*
Y26760D02*
G01X21508D01*
Y29260D02*
G01X23032D01*
X10112Y29360D02*
G01X8588D01*
Y26860D02*
G01X10112D01*
Y24360D02*
G01X8588D01*
Y21860D02*
G01X10112D01*
Y16260D02*
G01X8588D01*
Y13760D02*
G01X10112D01*
Y11260D02*
G01X8588D01*
Y8760D02*
G01X10112D01*
X75238Y12807D02*
G01X76762D01*
Y15297D02*
G01X75238D01*
Y17786D02*
G01X76762D01*
Y20301D02*
G01X75238D01*
Y22790D02*
G01X76762D01*
Y25330D02*
G01X75238D01*
Y27819D02*
G01X76762D01*
Y30334D02*
G01X75238D01*
Y32823D02*
G01X76762D01*
Y35312D02*
G01X75238D01*
Y37760D02*
G01X76762D01*
G54D901*
X161200Y106200D02*
G01X0D01*
Y-5000*
X161200*
Y106200*
G54D903*
G01X64109Y-7781D02*
Y-9750D01*
X65047Y-8437D02*
X64109Y-9375D01*
X64484Y-9000D02*
X65141Y-9750D01*
X65703Y-7781D02*
Y-9750D01*
X66359Y-9000D02*
X67484D01*
Y-8812D01*
X67391Y-8625D01*
X67297Y-8531D01*
X67109Y-8437D01*
X66828D01*
X66641Y-8531D01*
X66453Y-8719D01*
X66359Y-9000D01*
Y-9187D01*
X66453Y-9469D01*
X66641Y-9656D01*
X66828Y-9750D01*
X67109D01*
X67297Y-9656D01*
X67484Y-9469D01*
X68047Y-7781D02*
X68141Y-7875D01*
X68234Y-7781D01*
X68141Y-7687D01*
X68047Y-7781D01*
X68141Y-8437D02*
Y-9750D01*
X68891Y-8437D02*
Y-9750D01*
Y-8812D02*
X69172Y-8531D01*
X69359Y-8437D01*
X69641D01*
X69828Y-8531D01*
X69922Y-8812D01*
Y-9750D01*
X70578Y-9000D02*
X71703D01*
Y-8812D01*
X71609Y-8625D01*
X71516Y-8531D01*
X71328Y-8437D01*
X71047D01*
X70859Y-8531D01*
X70672Y-8719D01*
X70578Y-9000D01*
Y-9187D01*
X70672Y-9469D01*
X70859Y-9656D01*
X71047Y-9750D01*
X71328D01*
X71516Y-9656D01*
X71703Y-9469D01*
X72359Y-8437D02*
Y-10406D01*
Y-8719D02*
X72547Y-8531D01*
X72734Y-8437D01*
X73016D01*
X73203Y-8531D01*
X73391Y-8719D01*
X73484Y-9000D01*
Y-9187D01*
X73391Y-9469D01*
X73203Y-9656D01*
X73016Y-9750D01*
X72734D01*
X72547Y-9656D01*
X72359Y-9469D01*
X74141Y-7781D02*
Y-9750D01*
X75922Y-8437D02*
Y-9750D01*
Y-8719D02*
X75734Y-8531D01*
X75547Y-8437D01*
X75266D01*
X75078Y-8531D01*
X74891Y-8719D01*
X74797Y-9000D01*
Y-9187D01*
X74891Y-9469D01*
X75078Y-9656D01*
X75266Y-9750D01*
X75547D01*
X75734Y-9656D01*
X75922Y-9469D01*
X76766Y-7781D02*
Y-9375D01*
X76859Y-9656D01*
X77047Y-9750D01*
X77234D01*
X76484Y-8437D02*
X77141D01*
X77703Y-7781D02*
X77797Y-7875D01*
X77891Y-7781D01*
X77797Y-7687D01*
X77703Y-7781D01*
X77797Y-8437D02*
Y-9750D01*
X78547Y-8437D02*
Y-9750D01*
Y-8812D02*
X78828Y-8531D01*
X79016Y-8437D01*
X79297D01*
X79484Y-8531D01*
X79578Y-8812D01*
Y-9750D01*
X80234Y-9000D02*
X81359D01*
Y-8812D01*
X81266Y-8625D01*
X81172Y-8531D01*
X80984Y-8437D01*
X80703D01*
X80516Y-8531D01*
X80328Y-8719D01*
X80234Y-9000D01*
Y-9187D01*
X80328Y-9469D01*
X80516Y-9656D01*
X80703Y-9750D01*
X80984D01*
X81172Y-9656D01*
X81359Y-9469D01*
X81828Y-8437D02*
X82391Y-9750D01*
X82953Y-8437D02*
X82391Y-9750D01*
X83422Y-9000D02*
X84547D01*
Y-8812D01*
X84453Y-8625D01*
X84359Y-8531D01*
X84172Y-8437D01*
X83891D01*
X83703Y-8531D01*
X83516Y-8719D01*
X83422Y-9000D01*
Y-9187D01*
X83516Y-9469D01*
X83703Y-9656D01*
X83891Y-9750D01*
X84172D01*
X84359Y-9656D01*
X84547Y-9469D01*
X85203Y-8437D02*
Y-9750D01*
Y-9000D02*
X85297Y-8719D01*
X85484Y-8531D01*
X85672Y-8437D01*
X85953D01*
X86609Y-8156D02*
X86797Y-8062D01*
X87078Y-7781D01*
Y-9750D01*
X88484Y-8156D02*
X88672Y-8062D01*
X88953Y-7781D01*
Y-9750D01*
X90266Y-9562D02*
X90172Y-9656D01*
X90266Y-9750D01*
X90359Y-9656D01*
X90266Y-9562D01*
X92047Y-8719D02*
X91953Y-8531D01*
X91672Y-8437D01*
X91391D01*
X91109Y-8531D01*
X91016Y-8719D01*
X91109Y-8906D01*
X91297Y-9000D01*
X91766Y-9094D01*
X91953Y-9187D01*
X92047Y-9375D01*
Y-9469D01*
X91953Y-9656D01*
X91672Y-9750D01*
X91391D01*
X91109Y-9656D01*
X91016Y-9469D01*
X92703Y-8437D02*
Y-9750D01*
Y-8812D02*
X92984Y-8531D01*
X93172Y-8437D01*
X93453D01*
X93641Y-8531D01*
X93734Y-8812D01*
Y-9750D01*
Y-8812D02*
X94016Y-8531D01*
X94203Y-8437D01*
X94484D01*
X94672Y-8531D01*
X94766Y-8812D01*
Y-9750D01*
X95609Y-7781D02*
Y-9375D01*
X95703Y-9656D01*
X95891Y-9750D01*
X96078D01*
X95328Y-8437D02*
X95984D01*
M02*
