%FSLAX33Y33*%
%MOMM*%
%SFA1.000B1.000*%

%MIA0B0*%
%IPPOS*%
%ADD10C,0.15200*%
%ADD70C,0.10200*%
%ADD71C,0.12700*%
%ADD72C,0.05100*%
%ADD73C,0.07600*%
%ADD44C,0.20300*%
%ADD63R,0.76200X7.11200*%
%ADD64R,0.32500X0.90000*%
%ADD901C,0.01000*%
%ADD903C,0.25000*%
%LNkleineplatinever11.sst*%
%LPD*%
G54D63*
X79683Y24060D03*
G54D64*
X59463Y43935D03*
G54D70*
X865Y49891D02*
G01X2034Y49111D01*
X1840Y48722D02*
G01X2034Y48527D01*
Y48137*
X1840Y47942*
X1645*
X865Y48722*
Y47942*
Y49111D02*
G01X2034Y49891D01*
X5821Y49628D02*
G01X6990D01*
Y49043*
X6796Y48848*
X6406*
X6211Y49043*
Y49628*
Y49238D02*
G01X5821Y48848D01*
Y48458D02*
G01X6601Y47679D01*
X6796*
X6990Y47874*
Y48263*
X6796Y48458*
X5821D02*
G01Y47679D01*
X5721Y46808D02*
G01X6890D01*
Y46223*
X6696Y46028*
X6306*
X6111Y46223*
Y46808*
Y46418D02*
G01X5721Y46028D01*
Y45638D02*
G01Y44859D01*
Y45249D02*
G01X6890D01*
X6501Y45638*
X6870Y44198D02*
G01X5701D01*
X6091D02*
G01Y43613D01*
X6286Y43418*
X6676*
X6870Y43613*
Y44198*
X6091Y43808D02*
G01X5701Y43418D01*
X5896Y43028D02*
G01X5701Y42833D01*
Y42444*
X5896Y42249*
X6091*
X6286Y42444*
Y43028*
X5896*
X6286D02*
G01X6676Y42639D01*
X6870Y42249*
X6950Y40619D02*
G01X5781D01*
X6171D02*
G01Y40034D01*
X6366Y39839*
X6756*
X6950Y40034*
Y40619*
X6171Y40229D02*
G01X5781Y39839D01*
X5976Y39450D02*
G01X5781Y39255D01*
Y38865*
X5976Y38670*
X6171*
X6366Y38865*
Y39060*
Y38865D02*
G01X6561Y38670D01*
X6756*
X6950Y38865*
Y39255*
X6756Y39450*
X6950Y38280D02*
G01Y37501D01*
X6756*
X5976Y38280*
X5781*
Y37299D02*
G01X6950D01*
Y36714*
X6756Y36519*
X6366*
X6171Y36714*
Y37299*
Y36909D02*
G01X5781Y36519D01*
X5976Y36130D02*
G01X5781Y35935D01*
Y35545*
X5976Y35350*
X6171*
X6366Y35545*
Y35740*
Y35545D02*
G01X6561Y35350D01*
X6756*
X6950Y35545*
Y35935*
X6756Y36130*
Y34960D02*
G01X6561D01*
X6366Y34765*
Y34375*
X6171Y34181*
X5976*
X5781Y34375*
Y34765*
X5976Y34960*
X6171*
X6366Y34765*
Y34375D02*
G01X6561Y34181D01*
X6756*
X6950Y34375*
Y34765*
X6756Y34960*
X3931Y32125D02*
G01X3736Y32320D01*
X3347*
X3152Y32125*
X2762Y31735D02*
G01X1982D01*
X2567Y32320*
Y31150*
X3152D02*
G01X3931Y31930D01*
Y32125*
Y31150D02*
G01X3152D01*
X1592D02*
G01X1203Y31540D01*
X1398D02*
G01X813D01*
Y31150D02*
G01Y32320D01*
X1398*
X1592Y32125*
Y31735*
X1398Y31540*
X11781Y31719D02*
G01X12950D01*
Y31134*
X12756Y30939*
X12366*
X12171Y31134*
Y31719*
Y31329D02*
G01X11781Y30939D01*
X11976Y30550D02*
G01X11781Y30355D01*
Y29965*
X11976Y29770*
X12171*
X12366Y29965*
Y30160*
Y29965D02*
G01X12561Y29770D01*
X12756*
X12950Y29965*
Y30355*
X12756Y30550*
Y29380D02*
G01X12950Y29185D01*
Y28795*
X12756Y28601*
X12561*
X11781Y29380*
Y28601*
X11751Y28547D02*
G01X12920D01*
Y27962*
X12726Y27768*
X12336*
X12141Y27962*
Y28547*
Y28157D02*
G01X11751Y27768D01*
X12336Y27378D02*
G01Y26598D01*
X12726Y26208D02*
G01X12920Y26013D01*
Y25624*
X12726Y25429*
X11946Y26208*
X11751Y26013*
Y25624*
X11946Y25429*
X12726*
Y26208D02*
G01X11946D01*
X11751Y26793D02*
G01X12920D01*
X12336Y27378*
X18281Y30335D02*
G01Y30725D01*
X18476Y30920*
X19256Y30141*
X18476*
X18281Y30335*
X18476Y30920D02*
G01X19256D01*
X19450Y30725*
Y30335*
X19256Y30141*
Y31310D02*
G01X19061D01*
X18866Y31505*
X18671Y31310*
X18476*
X18281Y31505*
Y31895*
X18476Y32090*
X18281Y32479D02*
G01X18671Y32869D01*
Y32674D02*
G01Y33259D01*
X18281D02*
G01X19450D01*
Y32674*
X19256Y32479*
X18866*
X18671Y32674*
X19256Y32090D02*
G01X19450Y31895D01*
Y31505*
X19256Y31310*
X18866Y31505D02*
G01Y31700D01*
X18181Y35121D02*
G01Y35900D01*
Y35510D02*
G01X19350D01*
X18961Y35900*
Y36290D02*
G01X18766Y36485D01*
X18571Y36290*
X18376*
X18181Y36485*
Y36875*
X18376Y37070*
X18181Y37459D02*
G01X18571Y37849D01*
Y37654D02*
G01Y38239D01*
X18181D02*
G01X19350D01*
Y37654*
X19156Y37459*
X18766*
X18571Y37654*
X19156Y37070D02*
G01X19350Y36875D01*
Y36485*
X19156Y36290*
X18961*
X18766Y36485D02*
G01Y36680D01*
X13020Y35527D02*
G01Y34942D01*
X12826Y34747*
X12436*
X12241Y34942*
Y35527*
Y35137D02*
G01X11851Y34747D01*
X12046Y34358D02*
G01X11851Y34163D01*
Y33773*
X12046Y33578*
X12241*
X12436Y33773*
Y33968*
Y33773D02*
G01X12631Y33578D01*
X12826*
X13020Y33773*
Y34163*
X12826Y34358*
Y33188D02*
G01X12631D01*
X12436Y32993*
Y32409*
X12046D02*
G01X12826D01*
X13020Y32604*
Y32993*
X12826Y33188*
X12046D02*
G01X11851Y32993D01*
Y32604*
X12046Y32409*
X11851Y35527D02*
G01X13020D01*
X22601Y44464D02*
G01X22796Y44269D01*
X23576*
X23770Y44464*
Y44853*
X23576Y45048*
X23381*
X23186Y44853*
Y44269*
X22601Y44464D02*
G01Y44853D01*
X22796Y45048*
X22601Y45438D02*
G01Y46218D01*
X23381Y45438*
X23576*
X23770Y45633*
Y46023*
X23576Y46218*
Y46608D02*
G01X23186D01*
X22991Y46802*
Y47387*
Y46997D02*
G01X22601Y46608D01*
X23576D02*
G01X23770Y46802D01*
Y47387*
X22601*
X46901Y46378D02*
G01X48070D01*
Y45793*
X47876Y45598*
X47486*
X47291Y45793*
Y46378*
Y45988D02*
G01X46901Y45598D01*
X47486Y45208D02*
G01Y44429D01*
X48070Y44624D02*
G01X46901D01*
X47486Y45208D02*
G01X48070Y44624D01*
X50126Y41790D02*
G01Y40815D01*
X50321Y40621*
X50711*
X50906Y40815*
Y41790*
X51295Y41595D02*
G01X51490Y41790D01*
X51880*
X52075Y41595*
Y41400*
X51880Y41205*
X52075Y41010*
Y40815*
X51880Y40621*
X51490*
X51295Y40815*
X51685Y41205D02*
G01X51880D01*
X59076Y41611D02*
G01Y42780D01*
X59661*
X59856Y42585*
Y42195*
X59661Y42000*
X59076*
X59466D02*
G01X59856Y41611D01*
X60245D02*
G01Y42780D01*
X60830*
X61025Y42585*
Y42195*
X60830Y42000*
X60245*
X61415Y41611D02*
G01X62194D01*
X61805D02*
G01Y42780D01*
X61415Y42390*
X61575Y37180D02*
G01X61965D01*
X62160Y36985*
Y36790*
X61965Y36595*
X62160Y36400*
Y36205*
X61965Y36010*
X61575*
X61380Y36205*
X60991Y36010D02*
G01X60601Y36400D01*
X60796D02*
G01X60211D01*
Y36010D02*
G01Y37180D01*
X60796*
X60991Y36985*
Y36595*
X60796Y36400*
X61380Y36985D02*
G01X61575Y37180D01*
X61770Y36595D02*
G01X61965D01*
X62030Y33600D02*
G01X61250D01*
X60861Y33405D02*
G01Y33015D01*
X60666Y32820*
X60081*
Y32430D02*
G01Y33600D01*
X60666*
X60861Y33405*
X60471Y32820D02*
G01X60861Y32430D01*
X61250D02*
G01Y32625D01*
X62030Y33405*
Y33600*
X67073Y33070D02*
G01X67658D01*
X67853Y32875*
Y32485*
X67658Y32290*
X67073*
Y31900D02*
G01Y33070D01*
X68242Y32680D02*
G01X68632Y33070D01*
Y31900*
X68242D02*
G01X69022D01*
X69412Y32095D02*
G01X69607Y31900D01*
X69996*
X70191Y32095*
Y32485*
X69996Y32680*
X69801*
X69412Y32485*
Y33070*
X70191*
X67853Y31900D02*
G01X67463Y32290D01*
X67638Y29670D02*
G01X67053D01*
Y28501*
Y28890D02*
G01X67638D01*
X67833Y29085*
Y29475*
X67638Y29670*
X68222Y29280D02*
G01X68612Y29670D01*
Y28501*
X68222D02*
G01X69002D01*
X69392Y28695D02*
G01Y28890D01*
X69587Y29085*
X69976*
X70171Y28890*
Y28695*
X69976Y28501*
X69587*
X69392Y28695*
X69587Y29085D02*
G01X69392Y29280D01*
Y29475*
X69587Y29670*
X69976*
X70171Y29475*
Y29280*
X69976Y29085*
X67833Y28501D02*
G01X67443Y28890D01*
X67981Y26500D02*
G01X68566D01*
X68761Y26305*
Y25915*
X68566Y25720*
X67981*
X67813Y25685D02*
G01X67618Y25490D01*
X67033*
Y25101D02*
G01Y26270D01*
X67618*
X67813Y26075*
Y25685*
X67981Y25331D02*
G01Y26500D01*
X68397Y26270D02*
G01X68202Y26075D01*
X68397Y26270D02*
G01X68787D01*
X68982Y26075*
Y25880*
X68202Y25101*
X68982*
X69150Y25331D02*
G01X69930Y26110D01*
Y26305*
X69735Y26500*
X69345*
X69150Y26305*
X69372Y25880D02*
G01X69761Y26270D01*
Y25101*
X69930Y25331D02*
G01X69150D01*
X69372Y25101D02*
G01X70151D01*
X70905Y25331D02*
G01Y26500D01*
X70320Y25915*
X71099*
X68761Y25331D02*
G01X68371Y25720D01*
X67813Y25101D02*
G01X67423Y25490D01*
X68021Y23100D02*
G01X68606D01*
X68801Y22905*
Y22515*
X68606Y22320*
X68021*
Y21931D02*
G01Y23100D01*
X68411Y22320D02*
G01X68801Y21931D01*
X69190D02*
G01X69970Y22710D01*
Y22905*
X69775Y23100*
X69385*
X69190Y22905*
X70360Y22515D02*
G01X70750Y22905D01*
X71139Y23100*
X70945Y22515D02*
G01X70360D01*
Y22125*
X70555Y21931*
X70945*
X71139Y22125*
Y22320*
X70945Y22515*
X69970Y21931D02*
G01X69190D01*
X69207Y19170D02*
G01X68817D01*
X68622Y18975*
X68233D02*
G01Y18585D01*
X68038Y18390*
X67453*
Y18000D02*
G01Y19170D01*
X68038*
X68233Y18975*
X67843Y18390D02*
G01X68233Y18000D01*
X68622D02*
G01X69402Y18780D01*
Y18975*
X69207Y19170*
X69792D02*
G01X70571D01*
Y18975*
X69792Y18195*
Y18000*
X69402D02*
G01X68622D01*
X68697Y15870D02*
G01X68502Y15675D01*
X68697Y15870D02*
G01X69087D01*
X69282Y15675*
Y15480*
X68502Y14700*
X69282*
X69672Y14895D02*
G01Y15090D01*
X69867Y15285*
X70256*
X70451Y15090*
Y14895*
X70256Y14700*
X69867*
X69672Y14895*
X69867Y15285D02*
G01X69672Y15480D01*
Y15675*
X69867Y15870*
X70256*
X70451Y15675*
Y15480*
X70256Y15285*
X68113D02*
G01Y15675D01*
X67918Y15870*
X67333*
Y14700*
Y15090D02*
G01X67918D01*
X68113Y15285*
X67723Y15090D02*
G01X68113Y14700D01*
X68106Y12550D02*
G01X68301Y12355D01*
Y11965*
X68106Y11770*
X67521*
Y11380D02*
G01Y12550D01*
X68106*
X68690Y12355D02*
G01X68885Y12550D01*
X69275*
X69470Y12355*
Y12160*
X69275Y11965*
X69470Y11770*
Y11575*
X69275Y11380*
X68885*
X68690Y11575*
X68301Y11380D02*
G01X67911Y11770D01*
X69080Y11965D02*
G01X69275D01*
X69860D02*
G01X70639D01*
X70445Y11380D02*
G01Y12550D01*
X69860Y11965*
X72060Y7760D02*
G01X67260D01*
X65560Y6060*
Y5460*
Y3560D02*
G01Y2960D01*
X67260Y1260*
X72060*
Y3560*
Y5460D02*
G01Y7760D01*
X71760Y3560D02*
G01X71724Y3456D01*
X71685Y3353*
X71642Y3252*
X71596Y3152*
X71546Y3055*
X71493Y2958*
X71436Y2864*
X71376Y2772*
X71313Y2682*
X71246Y2595*
X71177Y2509*
X71104Y2427*
X71029Y2347*
X70951Y2269*
X70870Y2195*
X70787Y2123*
X70701Y2055*
X70613Y1989*
X70522Y1927*
X70429Y1868*
X70335Y1812*
X70238Y1760*
X70140Y1711*
X70039Y1665*
X69938Y1623*
X69835Y1585*
X69730Y1551*
X69625Y1520*
X69518Y1493*
X69411Y1470*
X69303Y1450*
X69194Y1435*
X69084Y1423*
X68975Y1415*
X68865Y1411*
X68755*
X68645Y1415*
X68536Y1423*
X68426Y1435*
X68317Y1450*
X68209Y1470*
X68102Y1493*
X67995Y1520*
X67890Y1551*
X67785Y1585*
X67682Y1623*
X67581Y1665*
X67480Y1711*
X67382Y1760*
X67285Y1812*
X67191Y1868*
X67098Y1927*
X67007Y1989*
X66919Y2055*
X66833Y2123*
X66750Y2195*
X66669Y2269*
X66591Y2347*
X66516Y2427*
X66443Y2509*
X66374Y2595*
X66307Y2682*
X66244Y2772*
X66184Y2864*
X66127Y2958*
X66074Y3055*
X66024Y3152*
X65978Y3252*
X65935Y3353*
X65896Y3456*
X65860Y3560*
Y5460D02*
G01X65896Y5564D01*
X65935Y5667*
X65978Y5768*
X66024Y5868*
X66074Y5965*
X66127Y6062*
X66184Y6156*
X66244Y6248*
X66307Y6338*
X66374Y6425*
X66443Y6511*
X66516Y6593*
X66591Y6673*
X66669Y6751*
X66750Y6825*
X66833Y6897*
X66919Y6965*
X67007Y7031*
X67098Y7093*
X67191Y7152*
X67285Y7208*
X67382Y7260*
X67480Y7309*
X67581Y7355*
X67682Y7397*
X67785Y7435*
X67890Y7469*
X67995Y7500*
X68102Y7527*
X68209Y7550*
X68317Y7570*
X68426Y7585*
X68536Y7597*
X68645Y7605*
X68755Y7609*
X68865*
X68975Y7605*
X69084Y7597*
X69194Y7585*
X69303Y7570*
X69411Y7550*
X69518Y7527*
X69625Y7500*
X69730Y7469*
X69835Y7435*
X69938Y7397*
X70039Y7355*
X70140Y7309*
X70238Y7260*
X70335Y7208*
X70429Y7152*
X70522Y7093*
X70613Y7031*
X70701Y6965*
X70787Y6897*
X70870Y6825*
X70951Y6751*
X71029Y6673*
X71104Y6593*
X71177Y6511*
X71246Y6425*
X71313Y6338*
X71376Y6248*
X71436Y6156*
X71493Y6062*
X71546Y5965*
X71596Y5868*
X71642Y5768*
X71685Y5667*
X71724Y5564*
X71760Y5460*
X62120Y5103D02*
G01Y4713D01*
X61926Y4518*
X61731*
X61536Y4713*
X61341Y4518*
X61146*
X60951Y4713*
Y5103*
X61146Y5298*
X61071Y5359D02*
G01Y4774D01*
X61266Y4579*
X61656*
X61850Y4774*
Y5359*
X60681*
X60951Y5688D02*
G01X61341Y6077D01*
Y5882D02*
G01Y6467D01*
X60951D02*
G01X62120D01*
Y5882*
X61926Y5688*
X61536*
X61341Y5882*
X61926Y5298D02*
G01X62120Y5103D01*
X61536Y4908D02*
G01Y4713D01*
X61071Y4969D02*
G01X60681Y4579D01*
X60876Y4190D02*
G01X60681Y3995D01*
Y3605*
X60876Y3410*
X61071*
X61266Y3605*
Y3800*
Y3605D02*
G01X61461Y3410D01*
X61656*
X61850Y3605*
Y3995*
X61656Y4190*
X61536Y4128D02*
G01Y3544D01*
X61341Y3349*
X61146*
X60951Y3544*
Y3933*
X61146Y4128*
X61536*
X61926Y3739*
X62120Y3349*
X61850Y3020D02*
G01X61266D01*
X61461Y2630*
Y2435*
X61266Y2241*
X60876*
X60681Y2435*
Y2825*
X60876Y3020*
X61850D02*
G01Y2241D01*
X53075Y8719D02*
G01Y13240D01*
X53380Y12893D02*
G01Y12503D01*
X53575Y12308*
X53965*
Y12698*
X54355Y12308D02*
G01X54549Y12503D01*
Y12893*
X54355Y13088*
X53575*
X53380Y12893*
X53575Y11919D02*
G01X53380Y11724D01*
Y11334*
X53575Y11139*
X53965*
X54160Y11334*
Y11529*
X53965Y11919*
X54549*
Y11139*
X59596Y13182D02*
G01Y14157D01*
X60376D02*
G01Y13182D01*
X60181Y12987*
X59791*
X59596Y13182*
X60765D02*
G01Y12987D01*
Y13182D02*
G01X61545Y13962D01*
Y14157*
X60765*
X56955Y16404D02*
G01Y16793D01*
X56761Y16988*
X56725Y17530D02*
G01X56335D01*
X56140Y17725*
X55786Y17768D02*
G01X56955D01*
X56566Y18158*
X56530Y18310D02*
G01X56140Y18115D01*
Y18700*
X56919*
X56955Y18742D02*
G01Y19132D01*
X56761Y19327*
X55981*
X55786Y19132*
Y18742*
X55981Y18547*
X55750Y18505D02*
G01X55555Y18700D01*
X55165*
X54970Y18505*
X54581D02*
G01Y18115D01*
X54386Y17920*
X53801*
Y17530D02*
G01Y18700D01*
X54386*
X54581Y18505*
X54191Y17920D02*
G01X54581Y17530D01*
X54970D02*
G01X55750Y18310D01*
Y18505*
X55786Y18158D02*
G01Y17378D01*
X55750Y17530D02*
G01X54970D01*
X55786Y16988D02*
G01X56566Y16209D01*
X56761*
X56955Y16404*
X56725Y17530D02*
G01X56919Y17725D01*
Y18115*
X56725Y18310*
X56530*
X56761Y18547D02*
G01X56955Y18742D01*
X55786Y16988D02*
G01Y16209D01*
X49265Y13240D02*
G01Y8719D01*
X31990Y6757D02*
G01Y6172D01*
X31796Y5978*
X31406*
X31211Y6172*
Y6757*
Y6367D02*
G01X30821Y5978D01*
X31406Y5588D02*
G01Y4808D01*
X31796Y4418D02*
G01X31990Y4223D01*
Y3834*
X31796Y3639*
X31601*
X31406Y3834*
X31211Y3639*
X31016*
X30821Y3834*
Y4223*
X31016Y4418*
X31406Y4029D02*
G01Y3834D01*
X30291Y2480D02*
G01Y1311D01*
X29902D02*
G01X30681D01*
X29902Y2090D02*
G01X30291Y2480D01*
X29512D02*
G01Y1700D01*
X29122Y1311*
X28732Y1700*
Y2480*
X27850Y2885D02*
G01X27266Y3470D01*
Y2690*
X27461Y2300D02*
G01X27850Y1910D01*
X26681*
Y1521D02*
G01Y2300D01*
Y2885D02*
G01X27850D01*
X27656Y3859D02*
G01X27266D01*
X27071Y4054*
Y4639*
Y4249D02*
G01X26681Y3859D01*
X27656D02*
G01X27850Y4054D01*
Y4639*
X26681*
X30821Y5003D02*
G01X31990D01*
X31406Y5588*
X31990Y6757D02*
G01X30821D01*
X8220Y5607D02*
G01Y5022D01*
X8026Y4828*
X7636*
X7441Y5022*
Y5607*
Y5217D02*
G01X7051Y4828D01*
X7246Y4438D02*
G01X7051Y4243D01*
Y3853*
X7246Y3658*
X7441*
X7636Y3853*
Y4048*
Y3853D02*
G01X7831Y3658D01*
X8026*
X8220Y3853*
Y4243*
X8026Y4438*
Y3268D02*
G01X8220Y3073D01*
Y2684*
X8026Y2489*
X7831*
X7636Y2684*
X7441Y2489*
X7246*
X7051Y2684*
Y3073*
X7246Y3268*
X7636Y2879D02*
G01Y2684D01*
X7051Y5607D02*
G01X8220D01*
X50126Y28915D02*
G01Y29890D01*
X50906D02*
G01Y28915D01*
X50711Y28721*
X50321*
X50126Y28915*
X51295D02*
G01Y29305D01*
X51880*
X52075Y29110*
Y28915*
X51880Y28721*
X51490*
X51295Y28915*
Y29305D02*
G01X51685Y29695D01*
X52075Y29890*
X67093Y35300D02*
G01Y36470D01*
X67678*
X67873Y36275*
Y35885*
X67678Y35690*
X67093*
X67483D02*
G01X67873Y35300D01*
X68262D02*
G01X69042D01*
X69432D02*
G01X70211Y36080D01*
Y36275*
X70016Y36470*
X69627*
X69432Y36275*
X68652Y36470D02*
G01Y35300D01*
X69432D02*
G01X70211D01*
X68652Y36470D02*
G01X68262Y36080D01*
X78892Y46568D02*
G01Y47229D01*
X78451D02*
G01X79773D01*
Y46568*
X79553Y46348*
X79112*
X78892Y46568*
X78671Y47658D02*
G01X79553D01*
X79773Y47878*
Y48319*
X79553Y48539*
X78671*
X78451Y48319*
Y47878*
X78671Y47658*
X79773Y48968D02*
G01Y49849D01*
Y49408D02*
G01X78451D01*
G54D10*
X79556Y41525D02*
G01X72444D01*
X72400Y41523*
X72356Y41517*
X72313Y41508*
X72270Y41494*
X72229Y41477*
X72190Y41457*
X72153Y41433*
X72117Y41406*
X72085Y41376*
X72055Y41344*
X72028Y41308*
X72004Y41271*
X71984Y41232*
X71967Y41191*
X71953Y41148*
X71944Y41105*
X71938Y41061*
X71936Y41017*
Y39493*
X72698*
X73968*
Y10979*
X72952*
X72698*
X71936*
Y9455*
X71938Y9411*
X71944Y9367*
X71953Y9324*
X71967Y9281*
X71984Y9240*
X72004Y9201*
X72028Y9164*
X72055Y9128*
X72085Y9096*
X72117Y9066*
X72153Y9039*
X72190Y9015*
X72229Y8995*
X72270Y8978*
X72313Y8964*
X72356Y8955*
X72400Y8949*
X72444Y8947*
X79556*
X79600Y8949*
X79644Y8955*
X79687Y8964*
X79730Y8978*
X79771Y8995*
X79810Y9015*
X79847Y9039*
X79883Y9066*
X79915Y9096*
X79945Y9128*
X79972Y9164*
X79996Y9201*
X80016Y9240*
X80033Y9281*
X80047Y9324*
X80056Y9367*
X80062Y9411*
X80064Y9455*
Y18903*
X79302*
X79048*
Y9963*
X72952*
Y10979*
X79048Y18903D02*
G01Y19919D01*
X80064*
Y18903*
Y19919D02*
G01Y20428D01*
X79302*
X79048*
Y27692*
X79302*
Y20428*
X79048D02*
G01Y19919D01*
X80064Y20428D02*
G01Y27692D01*
X79302*
X79048D02*
G01Y28200D01*
Y29089*
X79302*
X80064*
Y41017*
X80062Y41061*
X80056Y41105*
X80047Y41148*
X80033Y41191*
X80016Y41232*
X79996Y41271*
X79972Y41308*
X79945Y41344*
X79915Y41376*
X79883Y41406*
X79847Y41433*
X79810Y41457*
X79771Y41477*
X79730Y41494*
X79687Y41508*
X79644Y41517*
X79600Y41523*
X79556Y41525*
X79048Y40509D02*
G01Y29089D01*
Y28200D02*
G01X80064D01*
Y29089*
Y28200D02*
G01Y27692D01*
X72952Y39517D02*
G01Y40509D01*
X79048*
X43621Y48760D02*
G01X41716D01*
X41714Y48697*
X41708Y48635*
X41699Y48573*
X41685Y48512*
X41668Y48452*
X41647Y48393*
X41623Y48335*
X41595Y48279*
X41564Y48225*
X41529Y48173*
X41492Y48123*
X41451Y48076*
X41407Y48031*
X41361Y47988*
X41312Y47949*
X41261Y47913*
X41208Y47880*
X41153Y47851*
X41096Y47824*
X41038Y47802*
X40978Y47783*
X40917Y47768*
X40856Y47756*
X40794Y47748*
X40731Y47744*
X40669*
X40606Y47748*
X40544Y47756*
X40483Y47768*
X40422Y47783*
X40362Y47802*
X40304Y47824*
X40247Y47851*
X40192Y47880*
X40139Y47913*
X40088Y47949*
X40039Y47988*
X39993Y48031*
X39949Y48076*
X39908Y48123*
X39871Y48173*
X39836Y48225*
X39805Y48279*
X39777Y48335*
X39753Y48393*
X39732Y48452*
X39715Y48512*
X39701Y48573*
X39692Y48635*
X39686Y48697*
X39684Y48760*
X37779*
Y25900*
X43621*
Y48760*
X20655Y48630D02*
G01X19588D01*
X18572*
X17506*
X17469Y48628*
X17432Y48623*
X17395Y48614*
X17360Y48601*
X17326Y48585*
X17294Y48566*
X17264Y48544*
X17237Y48518*
X17211Y48491*
X17189Y48461*
X17170Y48429*
X17154Y48395*
X17141Y48360*
X17132Y48323*
X17127Y48286*
X17125Y48249*
X18572Y48630D02*
G01X18574Y48586D01*
X18580Y48542*
X18589Y48499*
X18603Y48456*
X18620Y48415*
X18640Y48376*
X18664Y48339*
X18691Y48303*
X18721Y48271*
X18753Y48241*
X18789Y48214*
X18826Y48190*
X18865Y48170*
X18906Y48153*
X18949Y48139*
X18992Y48130*
X19036Y48124*
X19080Y48122*
X19124Y48124*
X19168Y48130*
X19211Y48139*
X19254Y48153*
X19295Y48170*
X19334Y48190*
X19371Y48214*
X19407Y48241*
X19439Y48271*
X19469Y48303*
X19496Y48339*
X19520Y48376*
X19540Y48415*
X19557Y48456*
X19571Y48499*
X19580Y48542*
X19586Y48586*
X19588Y48630*
X20655D02*
G01X20692Y48628D01*
X20729Y48623*
X20766Y48614*
X20801Y48601*
X20835Y48585*
X20867Y48566*
X20897Y48544*
X20924Y48518*
X20950Y48491*
X20972Y48461*
X20991Y48429*
X21007Y48395*
X21020Y48360*
X21029Y48323*
X21034Y48286*
X21036Y48249*
Y38851D02*
G01X21034Y38814D01*
X21029Y38777*
X21020Y38740*
X21007Y38705*
X20991Y38671*
X20972Y38639*
X20950Y38609*
X20924Y38582*
X20897Y38556*
X20867Y38534*
X20835Y38515*
X20801Y38499*
X20766Y38486*
X20729Y38477*
X20692Y38472*
X20655Y38470*
X17506*
X17469Y38472*
X17432Y38477*
X17395Y38486*
X17360Y38499*
X17326Y38515*
X17294Y38534*
X17264Y38556*
X17237Y38582*
X17211Y38609*
X17189Y38639*
X17170Y38671*
X17154Y38705*
X17141Y38740*
X17132Y38777*
X17127Y38814*
X17125Y38851*
X38206Y24000D02*
G01X39272D01*
X40288*
X41355*
X41392Y23998*
X41429Y23993*
X41466Y23984*
X41501Y23971*
X41535Y23955*
X41567Y23936*
X41597Y23914*
X41624Y23888*
X41650Y23861*
X41672Y23831*
X41691Y23799*
X41707Y23765*
X41720Y23730*
X41729Y23693*
X41734Y23656*
X41736Y23619*
X40288Y24000D02*
G01X40286Y23956D01*
X40280Y23912*
X40271Y23869*
X40257Y23826*
X40240Y23785*
X40220Y23746*
X40196Y23709*
X40169Y23673*
X40139Y23641*
X40107Y23611*
X40071Y23584*
X40034Y23560*
X39995Y23540*
X39954Y23523*
X39911Y23509*
X39868Y23500*
X39824Y23494*
X39780Y23492*
X39736Y23494*
X39692Y23500*
X39649Y23509*
X39606Y23523*
X39565Y23540*
X39526Y23560*
X39489Y23584*
X39453Y23611*
X39421Y23641*
X39391Y23673*
X39364Y23709*
X39340Y23746*
X39320Y23785*
X39303Y23826*
X39289Y23869*
X39280Y23912*
X39274Y23956*
X39272Y24000*
X38206D02*
G01X38169Y23998D01*
X38132Y23993*
X38095Y23984*
X38060Y23971*
X38026Y23955*
X37994Y23936*
X37964Y23914*
X37937Y23888*
X37911Y23861*
X37889Y23831*
X37870Y23799*
X37854Y23765*
X37841Y23730*
X37832Y23693*
X37827Y23656*
X37825Y23619*
Y14221D02*
G01X37827Y14184D01*
X37832Y14147*
X37841Y14110*
X37854Y14075*
X37870Y14041*
X37889Y14009*
X37911Y13979*
X37937Y13952*
X37964Y13926*
X37994Y13904*
X38026Y13885*
X38060Y13869*
X38095Y13856*
X38132Y13847*
X38169Y13842*
X38206Y13840*
X41355*
X41392Y13842*
X41429Y13847*
X41466Y13856*
X41501Y13869*
X41535Y13885*
X41567Y13904*
X41597Y13926*
X41624Y13952*
X41650Y13979*
X41672Y14009*
X41691Y14041*
X41707Y14075*
X41720Y14110*
X41729Y14147*
X41734Y14184*
X41736Y14221*
X41055Y12170D02*
G01X39988D01*
X38972*
X37906*
X37869Y12168*
X37832Y12163*
X37795Y12154*
X37760Y12141*
X37726Y12125*
X37694Y12106*
X37664Y12084*
X37637Y12058*
X37611Y12031*
X37589Y12001*
X37570Y11969*
X37554Y11935*
X37541Y11900*
X37532Y11863*
X37527Y11826*
X37525Y11789*
X38972Y12170D02*
G01X38974Y12126D01*
X38980Y12082*
X38989Y12039*
X39003Y11996*
X39020Y11955*
X39040Y11916*
X39064Y11879*
X39091Y11843*
X39121Y11811*
X39153Y11781*
X39189Y11754*
X39226Y11730*
X39265Y11710*
X39306Y11693*
X39349Y11679*
X39392Y11670*
X39436Y11664*
X39480Y11662*
X39524Y11664*
X39568Y11670*
X39611Y11679*
X39654Y11693*
X39695Y11710*
X39734Y11730*
X39771Y11754*
X39807Y11781*
X39839Y11811*
X39869Y11843*
X39896Y11879*
X39920Y11916*
X39940Y11955*
X39957Y11996*
X39971Y12039*
X39980Y12082*
X39986Y12126*
X39988Y12170*
X41055D02*
G01X41092Y12168D01*
X41129Y12163*
X41166Y12154*
X41201Y12141*
X41235Y12125*
X41267Y12106*
X41297Y12084*
X41324Y12058*
X41350Y12031*
X41372Y12001*
X41391Y11969*
X41407Y11935*
X41420Y11900*
X41429Y11863*
X41434Y11826*
X41436Y11789*
Y2391D02*
G01X41434Y2354D01*
X41429Y2317*
X41420Y2280*
X41407Y2245*
X41391Y2211*
X41372Y2179*
X41350Y2149*
X41324Y2122*
X41297Y2096*
X41267Y2074*
X41235Y2055*
X41201Y2039*
X41166Y2026*
X41129Y2017*
X41092Y2012*
X41055Y2010*
X37906*
X37869Y2012*
X37832Y2017*
X37795Y2026*
X37760Y2039*
X37726Y2055*
X37694Y2074*
X37664Y2096*
X37637Y2122*
X37611Y2149*
X37589Y2179*
X37570Y2211*
X37554Y2245*
X37541Y2280*
X37532Y2317*
X37527Y2354*
X37525Y2391*
X57496Y5392D02*
G01Y6476D01*
Y5934D02*
G01X59123D01*
X58581Y6476*
X57496Y7029D02*
G01Y8114D01*
X59123*
G54D71*
X2820Y50130D02*
G01X520D01*
Y46930*
Y35530*
Y31930*
X5520*
Y46930*
Y50130*
X4020*
X3320Y49430*
X2820Y50130*
X4020*
X17239Y50218D02*
G01Y49265D01*
X17429Y49074*
X17811*
X18001Y49265*
Y50218*
X18408Y49646D02*
G01X18980Y50218D01*
Y49074*
X19171Y49646D02*
G01X18408D01*
X25470Y41950D02*
G01Y12950D01*
X34470*
Y41950*
X25470*
X27463Y38657D02*
G01Y37895D01*
Y38276D02*
G01X28607D01*
X28225Y38657*
X33263Y42997D02*
G01X33453D01*
X34216Y42234*
X34407*
Y42997*
Y43404D02*
G01X33263Y44166D01*
Y43404D02*
G01X34407Y44166D01*
X37906Y49077D02*
G01X38288D01*
X38478Y49268*
Y50221*
X38885Y49840D02*
G01X39267Y50221D01*
Y49077*
X39648D02*
G01X38885D01*
X37906D02*
G01X37716Y49268D01*
Y50221*
X24670Y32010D02*
G01X19770D01*
Y28510*
X17770*
Y22410*
X19770*
Y19010*
X24670*
Y32010*
X22843Y30394D02*
G01X21699D01*
Y30775D02*
G01Y30013D01*
X22461Y30775D02*
G01X22843Y30394D01*
X19770Y28510D02*
G01Y22410D01*
Y18910D02*
G01X24670D01*
Y5910*
X19770*
Y9310*
X17770*
Y15410*
X19770*
Y9310*
X19369Y13013D02*
G01Y13776D01*
X18797*
X18987Y13394*
Y13204*
X18797Y13013*
X18415*
X18225Y13204*
Y13585*
X18415Y13776*
X18225Y14183D02*
G01X19369Y14945D01*
X19770Y15410D02*
G01Y18910D01*
X21699Y17675D02*
G01Y16913D01*
Y17294D02*
G01X22843D01*
X22461Y17675*
X19369Y14183D02*
G01X18225Y14945D01*
X11750Y19010D02*
G01Y6010D01*
X6850*
Y9410*
X4850*
Y15510*
X6850*
Y9410*
X6258Y13113D02*
G01X6067D01*
X5877Y13304*
X5686Y13113*
X5495*
X5305Y13304*
Y13685*
X5495Y13876*
X5305Y14283D02*
G01X6449Y15045D01*
X6850Y15510D02*
G01Y19010D01*
X11750*
Y19110D02*
G01Y32110D01*
X6850*
Y28610*
X4850*
Y22510*
X6850*
Y19110*
X11750*
X9923Y17394D02*
G01X9541Y17775D01*
X9923Y17394D02*
G01X8779D01*
Y17775D02*
G01Y17013D01*
X6449Y14283D02*
G01X5305Y15045D01*
X6258Y13876D02*
G01X6449Y13685D01*
Y13304*
X6258Y13113*
X5877Y13304D02*
G01Y13494D01*
X6850Y22510D02*
G01Y28610D01*
X6449Y28145D02*
G01X5305Y27383D01*
X5877Y26976D02*
G01Y26213D01*
X6449Y26404D02*
G01X5877Y26976D01*
X6449Y27383D02*
G01X5305Y28145D01*
Y26404D02*
G01X6449D01*
X8779Y30113D02*
G01Y30875D01*
Y30494D02*
G01X9923D01*
X9541Y30875*
X18225Y28045D02*
G01X19369Y27283D01*
X18797Y26876D02*
G01Y26304D01*
X18606Y26113*
X18415*
X18225Y26304*
Y26685*
X18415Y26876*
X18797*
X19178Y26494*
X19369Y26113*
X18225Y27283D02*
G01X19369Y28045D01*
X31335Y16885D02*
G01Y16123D01*
Y16504D02*
G01X32479D01*
X32097Y16885*
X31907Y15716D02*
G01X31525D01*
X31335Y15525*
Y15144*
X31525Y14953*
X31716*
X31907Y15144*
Y15716*
X32288Y15334*
X32479Y14953*
X37639Y13758D02*
G01Y12805D01*
X37829Y12614*
X38211*
X38401Y12805*
Y13758*
X38808Y13568D02*
G01Y13377D01*
X38999Y13186*
X39571*
Y12805D02*
G01Y13568D01*
X39380Y13758*
X38999*
X38808Y13568*
Y12805D02*
G01X38999Y12614D01*
X39380*
X39571Y12805*
X39680Y24444D02*
G01X39299D01*
X39108Y24635*
Y24826*
X39299Y25016*
X39680*
X39871Y24826*
Y24635*
X39680Y24444*
Y25016D02*
G01X39871Y25207D01*
Y25398*
X39680Y25588*
X39299*
X39108Y25398*
Y25207*
X39299Y25016*
X38701Y24635D02*
G01Y25588D01*
X37939D02*
G01Y24635D01*
X38129Y24444*
X38511*
X38701Y24635*
X71553Y41447D02*
G01Y42210D01*
Y41828D02*
G01X72697D01*
X72315Y42210*
X72697Y42617D02*
G01X71553Y43379D01*
Y42617D02*
G01X72697Y43379D01*
X74698Y40024D02*
G01Y38880D01*
X74317D02*
G01X75079D01*
X75486D02*
G01X76249D01*
X75868D02*
G01Y40024D01*
X75486Y39643*
X74698Y40024D02*
G01X74317Y39643D01*
X74413Y11169D02*
G01Y10407D01*
Y10788D02*
G01X75557D01*
X75175Y11169*
G54D72*
X72698Y10979D02*
G01Y9709D01*
X79302*
Y18903*
Y29089D02*
G01Y40763D01*
X72698*
Y39493*
X38180Y24000D02*
G01Y13840D01*
X37880Y12170D02*
G01Y2010D01*
X17480Y38470D02*
G01Y48630D01*
G54D73*
X21315Y38188D02*
G01X21158Y38032D01*
Y37405*
X21315Y37248*
X21629*
X21785Y37405*
X22094Y37248D02*
G01X22721D01*
X22407D02*
G01Y38188D01*
X22094Y37875*
X21785Y38032D02*
G01X21629Y38188D01*
X21315*
X4390Y25536D02*
G01X4233Y25692D01*
X3920*
X3763Y25536*
X3454D02*
G01X3298Y25692D01*
X2984*
X2827Y25536*
X2519D02*
G01X2362Y25692D01*
X2049*
X1892Y25536*
Y24909*
X2049Y24752*
X2362*
X2519Y24909*
X2827Y24752D02*
G01X3454Y25379D01*
Y25536*
X3763Y24752D02*
G01X4390Y25379D01*
Y25536*
Y24752D02*
G01X3763D01*
X3454D02*
G01X2827D01*
X2964Y22492D02*
G01X2807Y22336D01*
X2964Y22492D02*
G01X3278D01*
X3434Y22336*
Y22179*
X2807Y21552*
X3434*
X3743D02*
G01X4370D01*
X4056D02*
G01Y22492D01*
X3743Y22179*
X2499Y22336D02*
G01X2342Y22492D01*
X2029*
X1872Y22336*
Y21709*
X2029Y21552*
X2342*
X2499Y21709*
X2438Y18092D02*
G01X2124D01*
X1967Y17936*
X1659D02*
G01X1502Y18092D01*
X1189*
X1032Y17936*
Y17309*
X1189Y17152*
X1502*
X1659Y17309*
X1967Y17152D02*
G01X2594Y17779D01*
Y17936*
X2438Y18092*
X2903Y17622D02*
G01X3530D01*
X3373Y17152D02*
G01Y18092D01*
X2903Y17622*
X2594Y17152D02*
G01X1967D01*
X2104Y14792D02*
G01X1947Y14636D01*
X2104Y14792D02*
G01X2418D01*
X2574Y14636*
Y14479*
X1947Y13852*
X2574*
X2883Y14009D02*
G01X3040Y13852D01*
X3353*
X3510Y14009*
Y14165*
X3353Y14322*
X3196*
X3353D02*
G01X3510Y14479D01*
Y14636*
X3353Y14792*
X3040*
X2883Y14636*
X1639D02*
G01X1482Y14792D01*
X1169*
X1012Y14636*
Y14009*
X1169Y13852*
X1482*
X1639Y14009*
X1575Y11368D02*
G01X1418Y11212D01*
Y10585*
X1575Y10428*
X1889*
X2045Y10585*
X2354Y10428D02*
G01X2981D01*
X2667D02*
G01Y11368D01*
X2354Y11055*
X2045Y11212D02*
G01X1889Y11368D01*
X1575*
X3289Y10898D02*
G01X3760D01*
X3917Y10741*
Y10585*
X3760Y10428*
X3446*
X3289Y10585*
Y10898*
X3603Y11212*
X3917Y11368*
X11908Y11334D02*
G01Y11020D01*
X12065Y10863*
X12692*
X12849Y11020*
Y11334*
X12692Y11491*
X12535*
X12379Y11334*
Y10863*
X11908Y11334D02*
G01X12065Y11491D01*
X11908Y11799D02*
G01Y12426D01*
Y12113D02*
G01X12849D01*
X12535Y12426*
X12692Y12735D02*
G01X12849Y12891D01*
Y13205*
X12692Y13362*
X12065*
X11908Y13205*
Y12891*
X12065Y12735*
Y14783D02*
G01X11908Y14940D01*
Y15254*
X12065Y15411*
X12692Y14783*
X12065*
X12692D02*
G01X12849Y14940D01*
Y15254*
X12692Y15411*
X12065*
X11908Y15719D02*
G01Y16346D01*
X12535Y15719*
X12692*
X12849Y15876*
Y16189*
X12692Y16346*
Y16655D02*
G01X12849Y16811D01*
Y17125*
X12692Y17282*
X12065*
X11908Y17125*
Y16811*
X12065Y16655*
X12712Y18703D02*
G01X12085Y19331D01*
X11928*
Y19639D02*
G01Y20266D01*
Y19953D02*
G01X12869D01*
X12555Y20266*
X12712Y20575D02*
G01X12869Y20731D01*
Y21045*
X12712Y21202*
X12085*
X11928Y21045*
Y20731*
X12085Y20575*
X12869Y19331D02*
G01Y18703D01*
X12712*
X12692Y22243D02*
G01X12535D01*
X12379Y22400*
Y22714*
X12535Y22871*
X12692*
X12849Y22714*
Y22400*
X12692Y22243*
X12379Y22400D02*
G01X12222Y22243D01*
X12065*
X11908Y22400*
Y22714*
X12065Y22871*
X12222*
X12379Y22714*
X11908Y23179D02*
G01Y23806D01*
Y23493D02*
G01X12849D01*
X12535Y23806*
X12692Y24115D02*
G01X12849Y24271D01*
Y24585*
X12692Y24742*
X12065*
X11908Y24585*
Y24271*
X12065Y24115*
X29948Y11545D02*
G01X30105Y11702D01*
X30732*
X30889Y11545*
Y11231*
X30732Y11075*
Y10766D02*
G01X30889Y10609D01*
Y10296*
X30732Y10139*
X30575*
X29948Y10766*
Y10139*
Y9831D02*
G01X30105D01*
X30732Y9203*
X30889*
Y9831*
X33248Y9654D02*
G01Y9340D01*
X33405Y9183*
X33562*
X33719Y9340*
Y9811*
X33405*
X33248Y9654*
Y10119D02*
G01Y10746D01*
X33875Y10119*
X34032*
X34189Y10276*
Y10589*
X34032Y10746*
Y11055D02*
G01X34189Y11211D01*
Y11525*
X34032Y11682*
X33405*
X33248Y11525*
Y11211*
X33405Y11055*
X33719Y9811D02*
G01X34032Y9497D01*
X34189Y9183*
X30105Y11075D02*
G01X29948Y11231D01*
Y11545*
X24312Y5002D02*
G01X23685D01*
X23528Y4845*
Y4531*
X23685Y4375*
Y4066D02*
G01X23528Y3909D01*
Y3596*
X23685Y3439*
X24312*
X24469Y3596*
Y3909*
X24312Y4066*
X24155*
X23999Y3909*
Y3439*
X24312Y4375D02*
G01X24469Y4531D01*
Y4845*
X24312Y5002*
X21069Y4825D02*
G01X20912Y4982D01*
X20285*
X20128Y4825*
Y4511*
X20285Y4355*
Y4046D02*
G01X20442D01*
X20599Y3889*
Y3576*
X20442Y3419*
X20285*
X20128Y3576*
Y3889*
X20285Y4046*
X20599Y3889D02*
G01X20755Y4046D01*
X20912*
X21069Y3889*
Y3576*
X20912Y3419*
X20755*
X20599Y3576*
X20912Y4355D02*
G01X21069Y4511D01*
Y4825*
X18269Y4805D02*
G01X18112Y4962D01*
X17485*
X17328Y4805*
Y4491*
X17485Y4335*
Y4026D02*
G01X17328Y3869D01*
Y3556*
X17485Y3399*
X17642*
X17799Y3556*
Y4026*
X17485*
X17799D02*
G01X18112Y3713D01*
X18269Y3399*
X18112Y4335D02*
G01X18269Y4491D01*
Y4805*
X14269Y4785D02*
G01X14112Y4942D01*
X13485*
X13328Y4785*
Y4471*
X13485Y4315*
Y4006D02*
G01X13328Y3849D01*
Y3536*
X13485Y3379*
X13799*
X13955Y3536*
Y3693*
X13799Y4006*
X14269*
Y3379*
X14112Y4315D02*
G01X14269Y4471D01*
Y4785*
X12696Y7590D02*
G01X12069D01*
X11912Y7747*
Y8060*
X12069Y8217*
X12696Y7590*
X12853Y7747*
Y8060*
X12696Y8217*
X12069*
X11912Y8526D02*
G01Y9153D01*
Y8839D02*
G01X12853D01*
X12539Y9153*
X12696Y9461D02*
G01X12853Y9618D01*
Y9931*
X12696Y10088*
X12069*
X11912Y9931*
Y9618*
X12069Y9461*
X44838Y13405D02*
G01Y14032D01*
X44995Y14188*
X45309*
X45465Y14032*
X45774D02*
G01X45931Y14188D01*
X46244*
X46401Y14032*
Y13875*
X45774Y13248*
X46401*
X46709Y13405D02*
G01X46866Y13248D01*
X47180*
X47337Y13405*
Y13718*
X47180Y13875*
X47023*
X46709Y13718*
Y14188*
X47337*
X45465Y13405D02*
G01X45309Y13248D01*
X44995*
X44838Y13405*
X56128Y11705D02*
G01Y11391D01*
X56285Y11235*
X56128Y10926D02*
G01Y10299D01*
Y10613D02*
G01X57069D01*
X56755Y10926*
X56912Y11235D02*
G01X57069Y11391D01*
Y11705*
X56912Y11862*
X56285*
X56128Y11705*
X56285Y9991D02*
G01X56128Y9834D01*
Y9520*
X56285Y9363*
X56599*
X56755Y9520*
Y9677*
X56599Y9991*
X57069*
Y9363*
X67792Y3316D02*
G01X67949Y3472D01*
X68262*
X68419Y3316*
X68727Y3159D02*
G01X69041Y3472D01*
Y2532*
X69354D02*
G01X68727D01*
X68419Y2689D02*
G01X68262Y2532D01*
X67949*
X67792Y2689*
Y3316*
X69663Y3159D02*
G01X69976Y3472D01*
Y2532*
X69663D02*
G01X70290D01*
X47870Y382D02*
G01X47243D01*
X47713Y852*
Y-88*
X46934Y69D02*
G01X46778Y-88D01*
X46464*
X46307Y69*
Y696*
X46464Y852*
X46778*
X46934Y696*
X61184Y25512D02*
G01X61498D01*
X61654Y25669*
X61963D02*
G01Y25512D01*
Y25669D02*
G01X62590Y26296D01*
Y26452*
X61963*
X61654Y26296D02*
G01X61498Y26452D01*
X61184*
X61027Y26296*
Y25669*
X61184Y25512*
X61180Y39512D02*
G01X61023Y39669D01*
X61180Y39512D02*
G01X61493D01*
X61650Y39669*
Y39825*
X61493Y39982*
X61336*
X61493D02*
G01X61650Y40139D01*
Y40296*
X61493Y40452*
X61180*
X61023Y40296*
X60714D02*
G01X60558Y40452D01*
X60244*
X60087Y40296*
Y39669*
X60244Y39512*
X60558*
X60714Y39669*
X53253Y43927D02*
G01Y44240D01*
X53096Y44397*
Y44706D02*
G01X53253Y44862D01*
Y45176*
X53096Y45333*
X52469*
X52312Y45176*
Y44862*
X52469Y44706*
X52312Y44397D02*
G01X52939Y43770D01*
X53096*
X53253Y43927*
X52312Y43770D02*
G01Y44397D01*
X66332Y46167D02*
G01Y46480D01*
X66489Y46637*
X66332Y46946D02*
G01Y47573D01*
Y47259D02*
G01X67273D01*
X66959Y47573*
X67116Y47881D02*
G01X67273Y48038D01*
Y48351*
X67116Y48508*
X66489*
X66332Y48351*
Y48038*
X66489Y47881*
X67116Y46637D02*
G01X67273Y46480D01*
Y46167*
X67116Y46010*
X66959*
X66803Y46167*
X66646Y46010*
X66489*
X66332Y46167*
X66803D02*
G01Y46324D01*
X72728Y46600D02*
G01X73669D01*
X73199Y47071*
Y46443*
X72728Y47379D02*
G01Y48006D01*
Y47693D02*
G01X73669D01*
X73355Y48006*
X73512Y48315D02*
G01X73669Y48471D01*
Y48785*
X73512Y48942*
X72885*
X72728Y48785*
Y48471*
X72885Y48315*
G54D44*
X65500Y22630D02*
G01X64400Y23730D01*
X65500Y22630D02*
G01Y15630D01*
X63350Y12670D02*
G01X60050D01*
Y7870*
X59550*
X60050D02*
G01X63350D01*
X60050Y12670D02*
G01X59550D01*
X57400Y15630D02*
G01Y22630D01*
X58500Y23730*
X51170Y11810D02*
G01X50170Y10787D01*
X52170*
X51170Y11810*
X30622Y5133D02*
G01Y3927D01*
X27918*
Y5133*
X30622*
X59400Y43110D02*
G01Y44210D01*
Y43110D02*
G01X63775D01*
X59400Y46610D02*
G01Y47710D01*
X63775*
G54D901*
X161200Y106200D02*
G01X0D01*
Y-5000*
X161200*
Y106200*
G54D903*
G01X64719Y-7781D02*
Y-9750D01*
X65656Y-8437D02*
X64719Y-9375D01*
X65094Y-9000D02*
X65750Y-9750D01*
X66313Y-7781D02*
Y-9750D01*
X66969Y-9000D02*
X68094D01*
Y-8812D01*
X68000Y-8625D01*
X67906Y-8531D01*
X67719Y-8437D01*
X67438D01*
X67250Y-8531D01*
X67063Y-8719D01*
X66969Y-9000D01*
Y-9187D01*
X67063Y-9469D01*
X67250Y-9656D01*
X67438Y-9750D01*
X67719D01*
X67906Y-9656D01*
X68094Y-9469D01*
X68656Y-7781D02*
X68750Y-7875D01*
X68844Y-7781D01*
X68750Y-7687D01*
X68656Y-7781D01*
X68750Y-8437D02*
Y-9750D01*
X69500Y-8437D02*
Y-9750D01*
Y-8812D02*
X69781Y-8531D01*
X69969Y-8437D01*
X70250D01*
X70438Y-8531D01*
X70531Y-8812D01*
Y-9750D01*
X71188Y-9000D02*
X72313D01*
Y-8812D01*
X72219Y-8625D01*
X72125Y-8531D01*
X71938Y-8437D01*
X71656D01*
X71469Y-8531D01*
X71281Y-8719D01*
X71188Y-9000D01*
Y-9187D01*
X71281Y-9469D01*
X71469Y-9656D01*
X71656Y-9750D01*
X71938D01*
X72125Y-9656D01*
X72313Y-9469D01*
X72969Y-8437D02*
Y-10406D01*
Y-8719D02*
X73156Y-8531D01*
X73344Y-8437D01*
X73625D01*
X73813Y-8531D01*
X74000Y-8719D01*
X74094Y-9000D01*
Y-9187D01*
X74000Y-9469D01*
X73813Y-9656D01*
X73625Y-9750D01*
X73344D01*
X73156Y-9656D01*
X72969Y-9469D01*
X74750Y-7781D02*
Y-9750D01*
X76531Y-8437D02*
Y-9750D01*
Y-8719D02*
X76344Y-8531D01*
X76156Y-8437D01*
X75875D01*
X75688Y-8531D01*
X75500Y-8719D01*
X75406Y-9000D01*
Y-9187D01*
X75500Y-9469D01*
X75688Y-9656D01*
X75875Y-9750D01*
X76156D01*
X76344Y-9656D01*
X76531Y-9469D01*
X77375Y-7781D02*
Y-9375D01*
X77469Y-9656D01*
X77656Y-9750D01*
X77844D01*
X77094Y-8437D02*
X77750D01*
X78313Y-7781D02*
X78406Y-7875D01*
X78500Y-7781D01*
X78406Y-7687D01*
X78313Y-7781D01*
X78406Y-8437D02*
Y-9750D01*
X79156Y-8437D02*
Y-9750D01*
Y-8812D02*
X79438Y-8531D01*
X79625Y-8437D01*
X79906D01*
X80094Y-8531D01*
X80188Y-8812D01*
Y-9750D01*
X80844Y-9000D02*
X81969D01*
Y-8812D01*
X81875Y-8625D01*
X81781Y-8531D01*
X81594Y-8437D01*
X81313D01*
X81125Y-8531D01*
X80938Y-8719D01*
X80844Y-9000D01*
Y-9187D01*
X80938Y-9469D01*
X81125Y-9656D01*
X81313Y-9750D01*
X81594D01*
X81781Y-9656D01*
X81969Y-9469D01*
X82438Y-8437D02*
X83000Y-9750D01*
X83563Y-8437D02*
X83000Y-9750D01*
X84031Y-9000D02*
X85156D01*
Y-8812D01*
X85063Y-8625D01*
X84969Y-8531D01*
X84781Y-8437D01*
X84500D01*
X84313Y-8531D01*
X84125Y-8719D01*
X84031Y-9000D01*
Y-9187D01*
X84125Y-9469D01*
X84313Y-9656D01*
X84500Y-9750D01*
X84781D01*
X84969Y-9656D01*
X85156Y-9469D01*
X85813Y-8437D02*
Y-9750D01*
Y-9000D02*
X85906Y-8719D01*
X86094Y-8531D01*
X86281Y-8437D01*
X86563D01*
X87219Y-8156D02*
X87406Y-8062D01*
X87688Y-7781D01*
Y-9750D01*
X89094Y-8156D02*
X89281Y-8062D01*
X89563Y-7781D01*
Y-9750D01*
X90875Y-9562D02*
X90781Y-9656D01*
X90875Y-9750D01*
X90969Y-9656D01*
X90875Y-9562D01*
X92656Y-8719D02*
X92563Y-8531D01*
X92281Y-8437D01*
X92000D01*
X91719Y-8531D01*
X91625Y-8719D01*
X91719Y-8906D01*
X91906Y-9000D01*
X92375Y-9094D01*
X92563Y-9187D01*
X92656Y-9375D01*
Y-9469D01*
X92563Y-9656D01*
X92281Y-9750D01*
X92000D01*
X91719Y-9656D01*
X91625Y-9469D01*
X94250Y-8719D02*
X94156Y-8531D01*
X93875Y-8437D01*
X93594D01*
X93313Y-8531D01*
X93219Y-8719D01*
X93313Y-8906D01*
X93500Y-9000D01*
X93969Y-9094D01*
X94156Y-9187D01*
X94250Y-9375D01*
Y-9469D01*
X94156Y-9656D01*
X93875Y-9750D01*
X93594D01*
X93313Y-9656D01*
X93219Y-9469D01*
X95000Y-7781D02*
Y-9375D01*
X95094Y-9656D01*
X95281Y-9750D01*
X95469D01*
X94719Y-8437D02*
X95375D01*
M02*
