%FSLAX33Y33*%
%MOMM*%
%SFA1.000B1.000*%

%MIA0B0*%
%IPPOS*%
%ADD11C,1.32100*%
%ADD15C,1.52400*%
%ADD24C,1.27000*%
%ADD25C,1.42200*%
%ADD34C,1.00600*%
%ADD35C,1.20600*%
%ADD36C,0.80600*%
%ADD61R,7.00000X7.00000*%
%ADD62R,6.45200X6.45200*%
%ADD901C,0.01000*%
%ADD903C,0.25000*%
%ADD920C,2.00000*%
%LNkleineplatinever11.smb*%
%LPD*%
G54D24*
X4020Y46930D03*
X2020Y45680D03*
X4020Y44430D03*
X2020Y43180D03*
X4020Y41930D03*
X2020Y40680D03*
X4020Y39430D03*
X2020Y38180D03*
X4020Y36930D03*
X2020Y35680D03*
G54D25*
X28700Y36340D03*
X31240D03*
Y33800D03*
X28700D03*
Y31260D03*
X31240D03*
Y28720D03*
X28700D03*
Y26180D03*
X31240D03*
Y23640D03*
X28700D03*
Y21100D03*
X31240D03*
Y18560D03*
X28700D03*
G54D34*
X25900Y15100D03*
X26100Y12200D03*
X28320Y7100D03*
X25300Y6600D03*
X21100Y6400D03*
X36400Y12800D03*
X38300Y9500D03*
X42800Y13400D03*
X44400Y10300D03*
Y7700D03*
X40600Y3915D03*
X38200Y2600D03*
X43600Y1100D03*
X52100Y3400D03*
X54200Y2800D03*
X72200Y1700D03*
X51900Y15800D03*
X45750Y17350D03*
X47400Y20400D03*
X44700Y22100D03*
X44400Y24600D03*
X41100Y29700D03*
X36400Y24900D03*
X24600Y33300D03*
X17000Y28900D03*
X15600Y25300D03*
X16000Y21800D03*
X10700Y18100D03*
X16900Y17600D03*
X1500Y21700D03*
X7100Y32100D03*
X7400Y33600D03*
X5600Y32700D03*
X14100Y40000D03*
X19200Y42200D03*
X24300Y40800D03*
X24600Y42200D03*
X23900Y39100D03*
X30500Y39400D03*
X32400Y42200D03*
X34300Y40900D03*
X39800Y45000D03*
X41700Y44600D03*
X41600Y42000D03*
X49900Y41000D03*
X51600Y47300D03*
X47300Y48000D03*
X39800Y48600D03*
X32000Y48900D03*
X39900Y34800D03*
X54600Y29700D03*
X57100Y30300D03*
X56400Y34900D03*
X61200Y42100D03*
X66600Y43700D03*
X64200Y27700D03*
X69200Y22300D03*
X59200Y17000D03*
G54D35*
X36890Y34800D03*
Y37300D03*
G54D36*
X42400Y38900D03*
X46200Y38600D03*
X47400Y39900D03*
X51300Y34900D03*
X47500Y33500D03*
X46400Y32600D03*
X47400Y31800D03*
Y29000D03*
Y26800D03*
Y25500D03*
X52900Y24600D03*
Y27500D03*
X64700Y26200D03*
X64800Y29300D03*
X65300Y30400D03*
X66000Y31500D03*
X65300Y33500D03*
X65000Y36900D03*
X66300Y39900D03*
X63600Y41000D03*
X57800Y37300D03*
X54400Y42000D03*
X29200Y45300D03*
X26700Y43900D03*
X28400Y48000D03*
X18200Y46200D03*
X14300Y47200D03*
X13200Y47900D03*
X13400Y45900D03*
X13600Y44100D03*
X12600Y43000D03*
X14300Y42900D03*
X12700Y41600D03*
X12500Y38100D03*
X12600Y35900D03*
X11300Y32600D03*
X9500Y33000D03*
X18800Y33900D03*
X20100Y34100D03*
X21000Y33200D03*
X22400Y33300D03*
X26100Y29100D03*
X25700Y26700D03*
X44900Y14400D03*
X45500Y9000D03*
X44500Y5400D03*
X58100Y18600D03*
X20400Y7400D03*
X18100D03*
X12600Y6400D03*
X15700Y13600D03*
X6700Y41100D03*
G54D61*
X76700Y46300D03*
Y4300D03*
G54D62*
X4700D03*
G54D920*
X5000Y102700D03*
X156200D03*
X5000Y-1500D03*
G54D11*
X36230Y47490D02*
G01X37551D01*
Y44950D02*
G01X36230D01*
Y42410D02*
G01X37551D01*
Y39870D02*
G01X36230D01*
Y37330D02*
G01X37551D01*
Y34790D02*
G01X36230D01*
Y32250D02*
G01X37551D01*
Y29710D02*
G01X36230D01*
Y27170D02*
G01X37551D01*
X43850D02*
G01X45171D01*
Y29710D02*
G01X43850D01*
Y32250D02*
G01X45171D01*
Y34790D02*
G01X43850D01*
Y37330D02*
G01X45171D01*
Y39870D02*
G01X43850D01*
Y42410D02*
G01X45171D01*
Y44950D02*
G01X43850D01*
Y47490D02*
G01X45171D01*
G54D15*
X23032Y29260D02*
G01X21508D01*
Y26760D02*
G01X23032D01*
Y24260D02*
G01X21508D01*
Y21760D02*
G01X23032D01*
Y16160D02*
G01X21508D01*
Y13660D02*
G01X23032D01*
Y11160D02*
G01X21508D01*
Y8660D02*
G01X23032D01*
X10112Y8760D02*
G01X8588D01*
Y11260D02*
G01X10112D01*
Y13760D02*
G01X8588D01*
Y16260D02*
G01X10112D01*
Y21860D02*
G01X8588D01*
Y24360D02*
G01X10112D01*
Y26860D02*
G01X8588D01*
Y29360D02*
G01X10112D01*
X75238Y30334D02*
G01X76762D01*
Y32823D02*
G01X75238D01*
Y35312D02*
G01X76762D01*
Y37760D02*
G01X75238D01*
Y27819D02*
G01X76762D01*
Y25330D02*
G01X75238D01*
Y22790D02*
G01X76762D01*
Y20301D02*
G01X75238D01*
Y17786D02*
G01X76762D01*
Y15297D02*
G01X75238D01*
Y12807D02*
G01X76762D01*
G54D901*
X161200Y106200D02*
G01X0D01*
Y-5000*
X161200*
Y106200*
G54D903*
G01X63781Y-7781D02*
Y-9750D01*
X64719Y-8437D02*
X63781Y-9375D01*
X64156Y-9000D02*
X64813Y-9750D01*
X65375Y-7781D02*
Y-9750D01*
X66031Y-9000D02*
X67156D01*
Y-8812D01*
X67063Y-8625D01*
X66969Y-8531D01*
X66781Y-8437D01*
X66500D01*
X66313Y-8531D01*
X66125Y-8719D01*
X66031Y-9000D01*
Y-9187D01*
X66125Y-9469D01*
X66313Y-9656D01*
X66500Y-9750D01*
X66781D01*
X66969Y-9656D01*
X67156Y-9469D01*
X67719Y-7781D02*
X67813Y-7875D01*
X67906Y-7781D01*
X67813Y-7687D01*
X67719Y-7781D01*
X67813Y-8437D02*
Y-9750D01*
X68563Y-8437D02*
Y-9750D01*
Y-8812D02*
X68844Y-8531D01*
X69031Y-8437D01*
X69313D01*
X69500Y-8531D01*
X69594Y-8812D01*
Y-9750D01*
X70250Y-9000D02*
X71375D01*
Y-8812D01*
X71281Y-8625D01*
X71188Y-8531D01*
X71000Y-8437D01*
X70719D01*
X70531Y-8531D01*
X70344Y-8719D01*
X70250Y-9000D01*
Y-9187D01*
X70344Y-9469D01*
X70531Y-9656D01*
X70719Y-9750D01*
X71000D01*
X71188Y-9656D01*
X71375Y-9469D01*
X72031Y-8437D02*
Y-10406D01*
Y-8719D02*
X72219Y-8531D01*
X72406Y-8437D01*
X72688D01*
X72875Y-8531D01*
X73063Y-8719D01*
X73156Y-9000D01*
Y-9187D01*
X73063Y-9469D01*
X72875Y-9656D01*
X72688Y-9750D01*
X72406D01*
X72219Y-9656D01*
X72031Y-9469D01*
X73813Y-7781D02*
Y-9750D01*
X75594Y-8437D02*
Y-9750D01*
Y-8719D02*
X75406Y-8531D01*
X75219Y-8437D01*
X74938D01*
X74750Y-8531D01*
X74563Y-8719D01*
X74469Y-9000D01*
Y-9187D01*
X74563Y-9469D01*
X74750Y-9656D01*
X74938Y-9750D01*
X75219D01*
X75406Y-9656D01*
X75594Y-9469D01*
X76438Y-7781D02*
Y-9375D01*
X76531Y-9656D01*
X76719Y-9750D01*
X76906D01*
X76156Y-8437D02*
X76813D01*
X77375Y-7781D02*
X77469Y-7875D01*
X77563Y-7781D01*
X77469Y-7687D01*
X77375Y-7781D01*
X77469Y-8437D02*
Y-9750D01*
X78219Y-8437D02*
Y-9750D01*
Y-8812D02*
X78500Y-8531D01*
X78688Y-8437D01*
X78969D01*
X79156Y-8531D01*
X79250Y-8812D01*
Y-9750D01*
X79906Y-9000D02*
X81031D01*
Y-8812D01*
X80938Y-8625D01*
X80844Y-8531D01*
X80656Y-8437D01*
X80375D01*
X80188Y-8531D01*
X80000Y-8719D01*
X79906Y-9000D01*
Y-9187D01*
X80000Y-9469D01*
X80188Y-9656D01*
X80375Y-9750D01*
X80656D01*
X80844Y-9656D01*
X81031Y-9469D01*
X81500Y-8437D02*
X82063Y-9750D01*
X82625Y-8437D02*
X82063Y-9750D01*
X83094Y-9000D02*
X84219D01*
Y-8812D01*
X84125Y-8625D01*
X84031Y-8531D01*
X83844Y-8437D01*
X83563D01*
X83375Y-8531D01*
X83188Y-8719D01*
X83094Y-9000D01*
Y-9187D01*
X83188Y-9469D01*
X83375Y-9656D01*
X83563Y-9750D01*
X83844D01*
X84031Y-9656D01*
X84219Y-9469D01*
X84875Y-8437D02*
Y-9750D01*
Y-9000D02*
X84969Y-8719D01*
X85156Y-8531D01*
X85344Y-8437D01*
X85625D01*
X86281Y-8156D02*
X86469Y-8062D01*
X86750Y-7781D01*
Y-9750D01*
X88156Y-8156D02*
X88344Y-8062D01*
X88625Y-7781D01*
Y-9750D01*
X89938Y-9562D02*
X89844Y-9656D01*
X89938Y-9750D01*
X90031Y-9656D01*
X89938Y-9562D01*
X91719Y-8719D02*
X91625Y-8531D01*
X91344Y-8437D01*
X91063D01*
X90781Y-8531D01*
X90688Y-8719D01*
X90781Y-8906D01*
X90969Y-9000D01*
X91438Y-9094D01*
X91625Y-9187D01*
X91719Y-9375D01*
Y-9469D01*
X91625Y-9656D01*
X91344Y-9750D01*
X91063D01*
X90781Y-9656D01*
X90688Y-9469D01*
X92375Y-8437D02*
Y-9750D01*
Y-8812D02*
X92656Y-8531D01*
X92844Y-8437D01*
X93125D01*
X93313Y-8531D01*
X93406Y-8812D01*
Y-9750D01*
Y-8812D02*
X93688Y-8531D01*
X93875Y-8437D01*
X94156D01*
X94344Y-8531D01*
X94438Y-8812D01*
Y-9750D01*
X95188Y-7781D02*
Y-9750D01*
Y-8719D02*
X95375Y-8531D01*
X95563Y-8437D01*
X95844D01*
X96031Y-8531D01*
X96219Y-8719D01*
X96313Y-9000D01*
Y-9187D01*
X96219Y-9469D01*
X96031Y-9656D01*
X95844Y-9750D01*
X95563D01*
X95375Y-9656D01*
X95188Y-9469D01*
M02*
